<svg xmlns:xlink="http://www.w3.org/1999/xlink" xmlns="http://www.w3.org/2000/svg" width="50" height="50" viewBox="0 0 50 50" fill="none">
<circle cx="11" cy="33" r="11" fill="#1766FF"/>
<g filter="url(#filter0_b_4279_1856)">
<path d="M11.0462 9.36455C11.0462 9.36538 11.0456 9.36605 11.0447 9.36606C10.2469 9.36619 9.64098 9.47427 9.19695 9.69028C8.81019 9.85807 8.48206 10.1371 8.25429 10.4918C8.06816 10.8161 7.9841 11.1403 8.00212 11.5096C8.01236 11.8247 8.06178 12.1373 8.14922 12.4402L8.6956 14.0403L9.59623 16.7032L10.6079 19.5822C10.9202 20.5338 11.1723 21.2934 11.3404 21.8338C11.7187 22.9806 12.181 23.7791 12.7454 24.2354C13.3393 24.6949 14.0755 24.9318 14.8259 24.9049H34.8741C36.0779 24.9049 36.9936 25.9856 36.796 27.1731C36.6396 28.1128 35.8267 28.8016 34.8741 28.8016H15.0931C13.7301 28.8016 13.0366 29.384 13.0366 30.5758C13.0366 31.1583 13.1867 31.6566 13.4569 32.0709C13.7091 32.4792 14.2555 32.6983 15.054 32.6983H37.3446C37.8495 32.7167 38.3481 32.5805 38.7736 32.3081C39.1569 32.038 39.4791 31.6902 39.7192 31.2873C39.9879 30.8635 40.1998 30.4063 40.3497 29.9274C40.4888 29.4707 40.607 29.0079 40.7039 28.5404L40.9351 27.2886L41.4154 24.7998L42.0278 21.4675L42.7003 17.7659L44.0838 10.4683C44.3523 9.05218 45.5899 8.02712 47.0313 8.02712H47.7378C48.1148 8.04179 48.4854 7.92741 48.7886 7.70289C49.362 7.27875 49.7518 6.65162 49.8783 5.94967C49.9404 5.63501 49.9755 5.31563 49.9834 4.99501C49.9834 4.4096 49.7943 3.93527 49.413 3.56601C48.9905 3.1823 48.4343 2.97966 47.8639 3.00162H43.5589C42.9915 3.00162 42.5322 3.08868 42.196 3.2598C41.8597 3.43392 41.5865 3.65007 41.3764 3.90825C41.1873 4.16943 41.0402 4.44862 40.9561 4.73082L40.746 5.46934C40.6829 5.7065 40.6409 6.03073 40.5808 6.44201L40.4127 7.71791C40.2659 8.66466 39.4508 9.36305 38.4927 9.36305H11.0477C11.0469 9.36305 11.0462 9.36372 11.0462 9.36455ZM18.2062 33.9517C18.2062 33.9525 18.2056 33.9532 18.2047 33.9532C17.6589 33.9534 17.134 34.0615 16.6511 34.2534C16.1468 34.4486 15.7295 34.7337 15.3693 35.1C15.012 35.4663 14.7208 35.8805 14.5107 36.3759C14.3005 36.8742 14.1954 37.3936 14.1954 37.937C14.1954 38.4774 14.3005 38.9937 14.5107 39.4921C14.7208 39.9904 15.012 40.4017 15.3693 40.771C15.7295 41.1372 16.1468 41.4194 16.6511 41.6356C17.1407 41.8525 17.6708 41.963 18.2062 41.9598C18.7286 41.9598 19.257 41.8517 19.7373 41.6356C20.2055 41.4353 20.6275 41.141 20.9772 40.771C21.3416 40.4028 21.633 39.9688 21.8358 39.4921C22.0454 38.9995 22.1526 38.4693 22.151 37.934C22.151 37.3936 22.0459 36.8742 21.8358 36.3759C21.633 35.9 21.3416 35.4671 20.9772 35.1C20.6409 34.7307 20.2176 34.4485 19.7373 34.2564C19.2516 34.0577 18.7325 33.9538 18.2077 33.9502C18.2069 33.9502 18.2062 33.9509 18.2062 33.9517ZM35.8976 33.8646C35.8976 33.8638 35.8969 33.8631 35.8961 33.8631C34.8453 33.8675 33.8373 34.2797 33.0846 35.0129C32.7304 35.3792 32.4332 35.7935 32.244 36.2888C32.035 36.7817 31.9272 37.3116 31.9272 37.8469C31.9272 38.3823 32.035 38.9122 32.244 39.405C32.4325 39.885 32.7188 40.3205 33.0846 40.6839C33.457 41.0462 33.8911 41.339 34.3665 41.5485C34.8468 41.7647 35.3542 41.8727 35.8976 41.8727C36.465 41.8727 36.9873 41.7647 37.4527 41.5485C37.9177 41.3332 38.3429 41.0409 38.7105 40.6839C39.0763 40.3205 39.3626 39.885 39.5511 39.405C39.7605 38.9122 39.8684 38.3823 39.8684 37.8469C39.8684 37.3115 39.7605 36.7816 39.5511 36.2888C39.362 35.7905 39.0678 35.3792 38.7105 35.0129C38.3323 34.6437 37.912 34.3645 37.4497 34.1694C36.9877 33.9744 36.4659 33.8663 35.8991 33.8661C35.8982 33.8661 35.8976 33.8655 35.8976 33.8646Z" fill="#1766FF" fill-opacity="0.1"/>
</g>
<path d="M35 27H14" stroke="#FBFBFF" stroke-width="4" stroke-linecap="round"/>
<defs>
<filter id="filter0_b_4279_1856" x="-1.4" y="-6.4" width="60.7834" height="57.76" filterUnits="userSpaceOnUse" color-interpolation-filters="sRGB">
<feFlood flood-opacity="0" result="BackgroundImageFix"/>
<feGaussianBlur in="BackgroundImageFix" stdDeviation="4.7"/>
<feComposite in2="SourceAlpha" operator="in" result="effect1_backgroundBlur_4279_1856"/>
<feBlend mode="normal" in="SourceGraphic" in2="effect1_backgroundBlur_4279_1856" result="shape"/>
</filter>
</defs>
</svg>