<svg xmlns:xlink="http://www.w3.org/1999/xlink" xmlns="http://www.w3.org/2000/svg" width="50" height="50" viewBox="0 0 50 50" fill="none">
<g clip-path="url(#clip0_4279_1833)">
<circle cx="11" cy="16" r="11" fill="#1766FF"/>
<g filter="url(#filter0_b_4279_1833)">
<path d="M18.9414 13H40.9414C41.6562 13 42.2354 13.5685 42.2354 14.2691C42.2354 15.2209 43.1609 15.8939 44.109 15.8102C47.5011 15.5109 50 17.4272 50 20.6153C50 23.6304 47.4135 27.9443 44.1465 29.8286C43.0394 30.4672 42.1162 31.4909 41.7465 32.7143C40.4126 37.1286 36.5009 40.9233 31.8823 40.9233H18.9414C13.2239 40.9233 8.58838 35.1078 8.58838 29.5002V14.2695C8.58838 13.5685 9.168 13.0005 9.88232 13.0005H13.353C15.0099 13.0005 16.353 14.3436 16.353 16.0005V24.4235C16.3535 25.1246 16.9326 25.6926 17.6475 25.6921C18.3618 25.6916 18.9409 25.1241 18.9409 24.4235V13.0005C18.9409 13.0002 18.9411 13 18.9414 13ZM44.1382 18.3255C42.9452 18.4917 42.2354 19.6605 42.2354 20.865V23.5298C42.2354 25.6528 44.3064 26.8248 45.5604 25.1118C46.669 23.5973 47.4116 21.8443 47.4116 20.6153C47.4116 19.0176 46.1792 18.0412 44.1382 18.3255ZM7.29394 43.4619H48.7056C49.4204 43.4619 49.9995 44.0303 49.9995 44.7309C49.9995 45.432 49.4199 46 48.7056 46H7.29394C6.57913 46 6 45.4315 6 44.7309C6 44.0299 6.57962 43.4619 7.29394 43.4619Z" fill="#1766FF" fill-opacity="0.1"/>
</g>
<path d="M16.0498 25.0996C16.0498 25.928 16.7214 26.5996 17.5498 26.5996C18.3782 26.5996 19.0498 25.928 19.0498 25.0996L16.0498 25.0996ZM19.0498 25.0996L19.0498 12.9996L16.0498 12.9996L16.0498 25.0996L19.0498 25.0996Z" fill="white"/>
</g>
<defs>
<filter id="filter0_b_4279_1833" x="-3.4" y="3.6" width="62.8" height="51.8" filterUnits="userSpaceOnUse" color-interpolation-filters="sRGB">
<feFlood flood-opacity="0" result="BackgroundImageFix"/>
<feGaussianBlur in="BackgroundImageFix" stdDeviation="4.7"/>
<feComposite in2="SourceAlpha" operator="in" result="effect1_backgroundBlur_4279_1833"/>
<feBlend mode="normal" in="SourceGraphic" in2="effect1_backgroundBlur_4279_1833" result="shape"/>
</filter>
<clipPath id="clip0_4279_1833">
<rect width="50" height="50" fill="white"/>
</clipPath>
</defs>
</svg>