<svg xmlns:xlink="http://www.w3.org/1999/xlink" xmlns="http://www.w3.org/2000/svg" width="50" height="50" viewBox="0 0 50 50" fill="none">
<rect x="30" y="29" width="20" height="20" rx="10" fill="#1766FF"/>
<g filter="url(#filter0_b_4279_1902)">
<path d="M43.7961 5.45187C41.8879 1.48042 34.255 4.79189 26.3998 9.79615C26.2629 9.87443 26.1054 9.90926 25.9483 9.89603C25.7911 9.8828 25.6417 9.82212 25.5198 9.72205C25.3716 9.57384 25.2257 9.50205 25.0034 9.35385L11.2035 2.29092C9.95763 1.624 8.3412 2.1404 7.6812 3.46499C7.46388 3.89961 7.38892 4.4088 7.45855 4.84747C7.46027 4.85829 7.4612 4.86919 7.4612 4.88014C7.4612 4.91633 7.47112 4.95183 7.4899 4.98277L14.8741 17.1509C14.943 17.2956 14.9659 17.4579 14.9398 17.616C14.9138 17.7742 14.8399 17.9205 14.7282 18.0355C13.3341 19.1377 12.0117 20.1682 10.8376 21.0528C10.6176 21.1987 10.3235 21.2728 10.1035 21.1246L8.67236 20.4091C8.64799 20.3969 8.62112 20.3905 8.59388 20.3905C8.57228 20.3905 8.55086 20.3865 8.53071 20.3788L2.83654 18.1813C2.69065 18.1096 2.54244 18.1096 2.32243 18.1813L0.340109 18.8436C0.175193 18.8992 0.0102761 19.1187 0.000461036 19.3812C-0.00642786 19.5655 0.0464724 19.7599 0.15822 19.9066C0.180356 19.9356 0.202348 19.9577 0.226291 19.9853C0.716771 20.5503 6.70865 27.3817 9.66352 27.3817C10.8781 27.4572 12.0856 27.1477 13.1141 26.4971C18.722 23.6909 24.2077 20.6468 29.5562 17.3732C41.7397 9.86562 44.8961 7.65875 43.7961 5.45187ZM35.9409 17.8173C35.9409 17.8176 35.9408 17.8179 35.9405 17.818C35.3332 18.2229 34.6631 18.6278 33.9321 19.0344C33.805 19.1051 33.6756 19.1782 33.5833 19.2905C33.4349 19.4712 33.3691 19.7021 33.4473 19.9411C33.4826 20.0491 33.5545 20.138 33.6083 20.2381C33.6391 20.2952 33.6929 20.3382 33.7445 20.3775C36.0786 22.1555 37.7351 24.6791 38.4373 27.5299C38.4568 27.6168 38.459 27.7068 38.4437 27.7946C38.4284 27.8824 38.396 27.9664 38.3482 28.0416C38.3005 28.1169 38.2384 28.182 38.1654 28.2333C38.0205 28.3352 37.8339 28.3404 37.6567 28.3404H34.4009C34.3138 28.341 34.2273 28.3243 34.1467 28.2912C34.0661 28.2582 33.9928 28.2094 33.9312 28.1478C33.8696 28.0861 33.8208 28.0129 33.7877 27.9323C33.7547 27.8516 33.738 27.7652 33.7386 27.6781C33.529 25.4001 33.0613 23.1534 32.3445 20.981C32.2098 20.639 31.8857 20.4884 31.5488 20.5274C31.4924 20.5339 31.442 20.5257 31.3905 20.5497C31.3387 20.5738 31.2916 20.6255 31.2428 20.6552L30.9504 20.8328C30.7242 21.0038 30.4555 21.1309 30.2097 21.2796C30.0638 21.3678 29.9036 21.446 29.7973 21.5793C29.672 21.7363 29.6491 21.9468 29.7021 22.1574C30.1421 23.9243 30.4363 25.6912 30.5821 27.5299C30.5821 27.8981 30.2904 28.2663 29.9221 28.2663H23.1693C23.0823 28.2666 22.9962 28.2496 22.9158 28.2164C22.8354 28.1832 22.7624 28.1344 22.7011 28.0728C22.6397 28.0112 22.5911 27.9381 22.5582 27.8576C22.5253 27.7771 22.5087 27.6909 22.5093 27.604V27.5299C22.5093 27.1369 22.6511 26.6791 22.3807 26.3939C22.2718 26.2791 22.1186 26.2053 21.9211 26.2053C21.668 26.2053 21.439 26.3363 21.2148 26.4536C20.8565 26.6412 20.5223 26.8288 20.1931 27.0163C20.0238 27.1128 19.8478 27.1988 19.6758 27.2904C19.2521 27.5159 18.47 27.9685 18.1272 28.168C18.0166 28.2323 17.8716 28.2427 17.7507 28.2842C17.6766 28.3096 17.6291 28.3587 17.5595 28.3945C15.5795 29.4134 13.5834 30.4005 11.5717 31.3554C11.2776 31.5036 11.1317 31.7259 11.2035 32.0177C12.0141 39.9653 18.6928 46 26.6198 46H27.2057C35.795 45.7059 42.5479 38.3466 42.1079 29.5909C41.8879 24.9554 39.6121 20.6881 35.9424 17.8166C35.9418 17.8161 35.9409 17.8166 35.9409 17.8173ZM14.4341 31.2813C14.4341 31.2826 14.4351 31.2836 14.4364 31.2836H18.7646C19.1328 31.2836 19.4246 31.5777 19.4246 31.9459C19.4987 34.6854 20.0175 37.3948 20.9669 39.9653C21.1152 40.3358 20.8928 40.7017 20.5269 40.8499C20.4141 40.8867 20.3013 40.9046 20.1982 40.8937C20.006 40.8733 19.8568 40.7229 19.6981 40.6125C16.6121 38.4669 14.7208 35.0854 14.4341 31.2813ZM26.6198 42.7615C26.6198 42.7621 26.6193 42.7626 26.6186 42.7626C24.3429 42.7608 22.8033 37.4634 22.5093 32.0177C22.5093 31.7472 22.668 31.5167 22.8973 31.385C23.0654 31.2884 23.2669 31.2836 23.4608 31.2836H29.9221C30.2904 31.2836 30.5821 31.5777 30.5821 31.9459C30.3622 37.4633 28.8944 42.7585 26.621 42.7603C26.6203 42.7603 26.6198 42.7608 26.6198 42.7615ZM37.3991 36.0959C36.1646 38.5722 33.4978 36.6448 33.7302 33.8876C33.7847 33.2419 33.8127 32.5939 33.8127 31.9459C33.8127 31.5754 34.1068 31.2836 34.4727 31.2836H37.9232C38.2914 31.2836 38.5832 31.5777 38.5832 31.9459V32.0177C38.4308 33.4711 38.0228 34.8447 37.3991 36.0959Z" fill="#1766FF" fill-opacity="0.1"/>
</g>
<defs>
<filter id="filter0_b_4279_1902" x="-9.4" y="-7.4" width="62.8" height="62.8" filterUnits="userSpaceOnUse" color-interpolation-filters="sRGB">
<feFlood flood-opacity="0" result="BackgroundImageFix"/>
<feGaussianBlur in="BackgroundImageFix" stdDeviation="4.7"/>
<feComposite in2="SourceAlpha" operator="in" result="effect1_backgroundBlur_4279_1902"/>
<feBlend mode="normal" in="SourceGraphic" in2="effect1_backgroundBlur_4279_1902" result="shape"/>
</filter>
</defs>
</svg>