<svg xmlns:xlink="http://www.w3.org/1999/xlink" xmlns="http://www.w3.org/2000/svg" width="50" height="50" viewBox="0 0 50 50" fill="none">
<circle cx="37.1389" cy="18.1389" r="12.1389" fill="#1766FF"/>
<g clip-path="url(#clip0_5147_895)">
<g filter="url(#filter0_b_5147_895)">
<path d="M2.57719 38.2238C3.10198 38.2238 3.52742 37.7984 3.52742 37.2736V9.71687C3.52742 9.4673 3.57657 9.22017 3.67208 8.98959C3.76759 8.75902 3.90758 8.54951 4.08405 8.37304C4.26052 8.19656 4.47003 8.05658 4.70061 7.96107C4.93118 7.86556 5.17831 7.81641 5.42788 7.81641H22.5321C23.0361 7.81641 23.5195 8.01663 23.8759 8.37304C24.2323 8.72945 24.4325 9.21284 24.4325 9.71687V21.9206C24.4325 23.5774 25.7757 24.9206 27.4325 24.9206H28.2335C29.2415 24.9206 30.2083 25.321 30.9211 26.0338C31.6339 26.7467 32.0344 27.7134 32.0344 28.7215V36.3234C32.0344 36.8274 32.2346 37.3108 32.591 37.6672C32.9474 38.0236 33.4308 38.2238 33.9348 38.2238C34.4389 38.2238 34.9223 38.0236 35.2787 37.6672C35.6351 37.3108 35.8353 36.8274 35.8353 36.3234V26.0201C35.8353 24.3633 34.4922 23.0201 32.8353 23.0201H32.0344C31.5303 23.0201 31.047 22.8199 30.6905 22.4635C30.3341 22.1071 30.1339 21.6237 30.1339 21.1197V15.5479C30.1339 14.7523 29.8178 13.9892 29.2552 13.4266L28.3285 12.4999C27.5865 11.7579 27.5864 10.5549 28.3282 9.81278V9.81278C29.0702 9.07041 30.2736 9.07027 31.0158 9.81249L39.0792 17.8758C39.4355 18.2321 39.6374 18.7156 39.6362 19.2192V36.3234C39.6362 37.8355 39.0356 39.2856 37.9663 40.3549C36.8971 41.4241 35.4469 42.0248 33.9348 42.0248C32.4227 42.0248 30.9726 41.4241 29.9033 40.3549C28.8341 39.2856 28.2335 37.8355 28.2335 36.3234V30.622C28.2335 29.5724 27.3826 28.7215 26.333 28.7215V28.7215C25.2834 28.7215 24.4325 29.5724 24.4325 30.622V37.2736C24.4325 37.7984 24.858 38.2238 25.3828 38.2238V38.2238C25.9076 38.2238 26.333 38.6493 26.333 39.1741V40.1243C26.333 41.1739 25.4821 42.0248 24.4325 42.0248H3.52741C2.47782 42.0248 1.62695 41.1739 1.62695 40.1243V39.1741C1.62695 38.6493 2.05239 38.2238 2.57719 38.2238V38.2238ZM10.3283 11.6173C8.67149 11.6173 7.32835 12.9605 7.32835 14.6173V20.0201C7.32835 21.677 8.67149 23.0201 10.3283 23.0201H17.6316C19.2884 23.0201 20.6316 21.677 20.6316 20.0201V14.6173C20.6316 12.9605 19.2884 11.6173 17.6316 11.6173H10.3283Z" fill="#1766FF" fill-opacity="0.1"/>
</g>
</g>
<defs>
<filter id="filter0_b_5147_895" x="-7.77305" y="-1.58359" width="56.8098" height="53.008" filterUnits="userSpaceOnUse" color-interpolation-filters="sRGB">
<feFlood flood-opacity="0" result="BackgroundImageFix"/>
<feGaussianBlur in="BackgroundImageFix" stdDeviation="4.7"/>
<feComposite in2="SourceAlpha" operator="in" result="effect1_backgroundBlur_5147_895"/>
<feBlend mode="normal" in="SourceGraphic" in2="effect1_backgroundBlur_5147_895" result="shape"/>
</filter>
<clipPath id="clip0_5147_895">
<rect width="38" height="38" fill="white" transform="translate(0.722656 6)"/>
</clipPath>
</defs>
</svg>