<svg xmlns:xlink="http://www.w3.org/1999/xlink" xmlns="http://www.w3.org/2000/svg" width="50" height="50" viewBox="0 0 50 50" fill="none">
<circle cx="36.9264" cy="16.3971" r="11.6471" fill="#1766FF"/>
<g filter="url(#filter0_b_5144_798)">
<path d="M44.278 21.2375H40.1561V21.2375C39.8633 21.2424 39.5328 21.1252 39.4391 20.8478L37.7613 15.8844C37.1685 12.7601 34.9264 11.25 32.1738 11.25H14.7172C11.5555 11.25 9.63708 13.274 9.12865 15.8812L7.45745 20.8269C7.35856 21.1196 7.00431 21.2397 6.69542 21.2354V21.2354H2.57452C2.42392 21.2351 2.27474 21.2641 2.13551 21.3205C1.99628 21.377 1.86973 21.4599 1.76309 21.5646C1.65645 21.6692 1.57182 21.7935 1.51402 21.9303C1.45623 22.0671 1.42641 22.2138 1.42627 22.3619V23.3393C1.42627 23.9303 1.89157 24.4176 2.48339 24.4633C2.54386 24.468 2.60459 24.4719 2.6644 24.482V24.482C3.39166 24.6045 3.78899 25.4048 3.59809 26.1172C3.43262 26.7347 3.35248 27.3736 3.36174 28.0167L2.78388 34.5006C2.78388 34.5678 2.78567 34.6354 2.78905 34.7036C2.80121 34.9486 2.78742 35.1948 2.78388 35.4401V35.4401V43.2407C2.78388 44.3515 3.70035 45.25 4.83151 45.25H7.95583C8.22448 45.2505 8.49062 45.199 8.73901 45.0983C8.98741 44.9976 9.21319 44.8497 9.40346 44.6631C9.59373 44.4765 9.74474 44.2548 9.84788 44.0108C9.95101 43.7667 10.0042 43.505 10.0045 43.2407V43.2407C10.0045 41.8571 11.1262 40.7354 12.5098 40.7354H34.3801C35.7637 40.7354 36.8854 41.8571 36.8854 43.2407V43.2407C36.8854 44.3515 37.8019 45.25 38.933 45.25H42.0595C42.328 45.2504 42.5941 45.1988 42.8423 45.098C43.0906 44.9972 43.3163 44.8493 43.5064 44.6627C43.6966 44.4761 43.8475 44.2545 43.9506 44.0105C44.0536 43.7665 44.1068 43.5049 44.1071 43.2407V35.439V35.439C44.1071 35.1944 44.0888 34.9488 44.1016 34.7044C44.1052 34.6358 44.1071 34.5674 44.1071 34.4996L43.5282 28.0157C43.5282 27.3172 43.4418 26.674 43.281 26.0782C43.0938 25.3844 43.4803 24.6029 44.1891 24.4847V24.4847C44.2476 24.4749 44.3068 24.4712 44.3659 24.4668C44.4863 24.458 44.6046 24.4304 44.7165 24.3851C44.856 24.3286 44.9827 24.2456 45.0894 24.1409C45.1962 24.0361 45.2809 23.9117 45.3387 23.7747C45.3965 23.6376 45.4263 23.4908 45.4263 23.3424V22.3651C45.4249 22.0659 45.3032 21.7794 45.0879 21.5682C44.8726 21.3569 44.581 21.2381 44.2769 21.2375H44.278ZM10.5044 20.0847L11.8378 16.6003C11.8582 16.5469 11.8741 16.492 11.8855 16.4361V16.4361C11.903 16.3435 11.9232 16.2607 11.9462 16.1854C12.2106 15.319 13.2985 15.0321 14.2044 15.0321H32.7322C33.6169 15.0321 34.6448 15.2987 34.919 16.1399V16.1399C34.9742 16.3093 35.0223 16.5146 35.0855 16.6812L36.378 20.0879L36.7627 21.5903C36.8446 21.9106 36.8913 22.2487 36.7838 22.5613C36.3662 23.7758 34.8209 24.6749 33.5133 24.6749H13.3692C12.0586 24.6749 10.5129 23.7756 10.0961 22.5603C9.98883 22.2476 10.0358 21.9096 10.118 21.5894L10.5044 20.0847ZM11.4593 37.0374C11.045 37.0315 10.636 36.9439 10.2567 36.7797C9.87738 36.6156 9.5354 36.3782 9.251 36.0816C8.96661 35.7851 8.74558 35.4354 8.60101 35.0534C8.45644 34.6713 8.39127 34.2645 8.40936 33.8572C8.42744 33.4499 8.52841 33.0503 8.70629 32.682C8.88418 32.3138 9.13535 31.9844 9.44494 31.7134C9.75454 31.4424 10.1163 31.2353 10.5087 31.1043C10.9011 30.9733 11.3163 30.9211 11.7296 30.9507C12.5333 31.0085 13.2825 31.3721 13.8182 31.9644C14.3539 32.5567 14.6338 33.3311 14.5987 34.1232C14.5635 34.9153 14.216 35.6627 13.6298 36.2068C13.0437 36.7509 12.2651 37.0488 11.4593 37.0374ZM28.7857 34.7917C28.7848 35.032 28.6872 35.2621 28.5142 35.4317C28.3413 35.6013 28.107 35.6965 27.8628 35.6965H19.1606C18.9166 35.6965 18.6825 35.6014 18.5096 35.432C18.3366 35.2627 18.2389 35.0328 18.2378 34.7927V32.2486C18.2378 31.7484 18.6522 31.3438 19.1606 31.3438H27.8628C28.3712 31.3438 28.7857 31.7484 28.7857 32.2475V34.7917ZM35.4231 37.0374C35.0162 37.0381 34.6132 36.9599 34.2371 36.8073C33.8609 36.6548 33.519 36.4308 33.2308 36.1482C32.9427 35.8655 32.7139 35.5298 32.5577 35.1602C32.4014 34.7906 32.3207 34.3944 32.3202 33.9941C32.3207 33.5938 32.4014 33.1975 32.5577 32.8279C32.7139 32.4583 32.9427 32.1226 33.2308 31.84C33.519 31.5574 33.8609 31.3334 34.2371 31.1808C34.6132 31.0282 35.0162 30.9501 35.4231 30.9507C35.8299 30.9502 36.2328 31.0285 36.6088 31.1811C36.9849 31.3338 37.3267 31.5578 37.6147 31.8404C37.9027 32.123 38.1314 32.4586 38.2876 32.8282C38.4438 33.1977 38.5244 33.5939 38.525 33.9941C38.5233 34.8022 38.1957 35.5766 37.6141 36.1472C37.0325 36.7178 36.2445 37.038 35.4231 37.0374Z" fill="#1766FF" fill-opacity="0.1"/>
</g>
<defs>
<filter id="filter0_b_5144_798" x="-7.97373" y="1.85" width="62.7995" height="52.8" filterUnits="userSpaceOnUse" color-interpolation-filters="sRGB">
<feFlood flood-opacity="0" result="BackgroundImageFix"/>
<feGaussianBlur in="BackgroundImageFix" stdDeviation="4.7"/>
<feComposite in2="SourceAlpha" operator="in" result="effect1_backgroundBlur_5144_798"/>
<feBlend mode="normal" in="SourceGraphic" in2="effect1_backgroundBlur_5144_798" result="shape"/>
</filter>
</defs>
</svg>