<svg xmlns:xlink="http://www.w3.org/1999/xlink" xmlns="http://www.w3.org/2000/svg" width="50" height="50" viewBox="0 0 50 50" fill="none">
<circle cx="36.8267" cy="13.2564" r="11.6471" fill="#1766FF"/>
<g filter="url(#filter0_b_5144_849)">
<path d="M42.9091 37.8434C42.9091 38.9731 43.8249 39.8889 44.9545 39.8889V39.8889C46.0842 39.8889 47 40.8097 47 41.9394V41.9394C47 43.0746 46.0797 44 44.9444 44H4.05555C2.9203 44 2 43.0746 2 41.9394V41.9394C2 40.8097 2.91578 39.8889 4.04545 39.8889V39.8889C5.17513 39.8889 6.09091 38.9731 6.09091 37.8434V9.05556C6.09091 8.51039 6.30641 7.98755 6.69001 7.60206C7.07361 7.21657 7.59388 7 8.13636 7H28.5909C29.1334 7 29.6537 7.21657 30.0373 7.60206C30.4209 7.98755 30.6364 8.51039 30.6364 9.05556V37.8434C30.6364 38.9731 31.5521 39.8889 32.6818 39.8889V39.8889C33.8115 39.8889 34.7273 38.9731 34.7273 37.8434V22.3333C34.7273 20.6765 36.0704 19.3333 37.7273 19.3333H40.8636C41.4061 19.3333 41.9264 19.5499 42.31 19.9354C42.6936 20.3209 42.9091 20.8437 42.9091 21.3889V37.8434ZM16.3283 23.4444C15.193 23.4444 14.2727 24.3647 14.2727 25.5V25.5C14.2727 26.6353 15.193 27.5556 16.3283 27.5556H20.399C21.5342 27.5556 22.4545 26.6353 22.4545 25.5V25.5C22.4545 24.3647 21.5342 23.4444 20.399 23.4444H16.3283ZM16.3283 15.2222C15.193 15.2222 14.2727 16.1425 14.2727 17.2778V17.2778C14.2727 18.413 15.193 19.3333 16.3283 19.3333H20.399C21.5342 19.3333 22.4545 18.413 22.4545 17.2778V17.2778C22.4545 16.1425 21.5342 15.2222 20.399 15.2222H16.3283Z" fill="#1766FF" fill-opacity="0.1"/>
</g>
<defs>
<filter id="filter0_b_5144_849" x="-7.4" y="-2.4" width="63.8" height="55.8" filterUnits="userSpaceOnUse" color-interpolation-filters="sRGB">
<feFlood flood-opacity="0" result="BackgroundImageFix"/>
<feGaussianBlur in="BackgroundImageFix" stdDeviation="4.7"/>
<feComposite in2="SourceAlpha" operator="in" result="effect1_backgroundBlur_5144_849"/>
<feBlend mode="normal" in="SourceGraphic" in2="effect1_backgroundBlur_5144_849" result="shape"/>
</filter>
</defs>
</svg>