<svg xmlns:xlink="http://www.w3.org/1999/xlink" xmlns="http://www.w3.org/2000/svg" width="51" height="50" viewBox="0 0 51 50" fill="none">
<circle cx="38.5001" cy="16.1471" r="11.6471" fill="#1766FF"/>
<g filter="url(#filter0_b_5144_783)">
<path d="M37.0405 13.9375C36.5066 13.0476 36.8849 12.5632 37.3096 12.311C37.6652 12.0999 37.978 11.7594 37.978 11.3459V11.3459C37.978 10.8787 37.5993 10.5 37.1321 10.5H12.5739C12.1068 10.5 11.728 10.8787 11.728 11.3459V11.3459C11.728 11.7594 12.0409 12.0999 12.3964 12.311C12.8211 12.5632 13.1995 13.0476 12.6655 13.9375C11.9598 15.1137 8.95202 18.9461 4.57529 20.7692C2.51661 21.6268 1.3878 23.9533 3.31932 25.0681C4.11898 25.5296 5.07861 25.9529 6.21969 26.2682C7.71525 26.6815 8.91553 27.938 8.91553 29.4896V36.875C8.91553 38.5319 10.2587 39.875 11.9155 39.875H12.478C14.1349 39.875 15.478 38.5319 15.478 36.875V28C15.478 27.4822 15.8978 27.0625 16.4155 27.0625V27.0625C16.9333 27.0625 17.353 27.4822 17.353 28V38C17.353 39.0355 18.1925 39.875 19.228 39.875V39.875C20.2636 39.875 21.103 39.0355 21.103 38V30.0625C21.103 28.4056 22.4462 27.0625 24.103 27.0625H24.978C26.6349 27.0625 27.978 28.4056 27.978 30.0625V38C27.978 39.0355 28.8175 39.875 29.853 39.875V39.875C30.8886 39.875 31.728 39.0355 31.728 38V28.3125C31.728 27.6221 32.2877 27.0625 32.978 27.0625V27.0625C33.6684 27.0625 34.228 27.6221 34.228 28.3125V36.875C34.228 38.5319 35.5712 39.875 37.228 39.875H38.103C39.7599 39.875 41.103 38.5319 41.103 36.875V29.298C41.103 27.6967 42.3802 26.4239 43.9271 26.0098C44.8667 25.7582 45.6759 25.4187 46.3672 25.0406C48.3238 23.9704 47.1882 21.6155 45.1412 20.7306C40.7588 18.8361 37.7468 14.8792 37.0405 13.9375ZM6.72803 43C6.72803 44.3807 7.84732 45.5 9.22803 45.5H40.1655C41.5462 45.5 42.6655 44.3807 42.6655 43V43C42.6655 41.6193 41.5462 40.5 40.1655 40.5H9.22803C7.84732 40.5 6.72803 41.6193 6.72803 43V43Z" fill="#1766FF" fill-opacity="0.1"/>
</g>
<defs>
<filter id="filter0_b_5144_783" x="-7.07627" y="1.1" width="63.8562" height="53.8" filterUnits="userSpaceOnUse" color-interpolation-filters="sRGB">
<feFlood flood-opacity="0" result="BackgroundImageFix"/>
<feGaussianBlur in="BackgroundImageFix" stdDeviation="4.7"/>
<feComposite in2="SourceAlpha" operator="in" result="effect1_backgroundBlur_5144_783"/>
<feBlend mode="normal" in="SourceGraphic" in2="effect1_backgroundBlur_5144_783" result="shape"/>
</filter>
</defs>
</svg>