<svg xmlns:xlink="http://www.w3.org/1999/xlink" xmlns="http://www.w3.org/2000/svg" width="52" height="50" viewBox="0 0 52 50" fill="none">
<circle cx="12.2369" cy="13.9517" r="11.6471" fill="#1766FF"/>
<g filter="url(#filter0_b_5144_872)">
<path d="M10.1602 36.6953V36.6953C10.9195 36.6953 11.5175 37.3205 11.7047 38.0564C12.31 40.4363 14.4662 42.1953 17.0352 42.1953C19.0288 42.1953 20.7738 41.1359 21.7384 39.5491C22.599 38.1333 23.8783 36.6953 25.5352 36.6953H33.2852C34.942 36.6953 36.2214 38.1333 37.082 39.5491C38.0465 41.1359 39.7915 42.1953 41.7852 42.1953C44.3541 42.1953 46.5103 40.4363 47.1156 38.0564C47.3028 37.3205 47.9008 36.6953 48.6602 36.6953V36.6953C49.4192 36.6953 50.0352 36.0793 50.0352 35.3203V14.6953C50.0352 11.6566 47.5739 9.19531 44.5352 9.19531H30.7852C28.7915 9.19531 27.0465 10.2547 26.082 11.8415C25.2214 13.2573 23.942 14.6953 22.2852 14.6953H18.4954C18.0884 14.6623 17.6759 14.7806 17.3652 15.0913L9.27191 23.1873C9.23066 23.2258 9.24441 23.2891 9.20866 23.3331C8.95016 23.5833 8.78516 23.9298 8.78516 24.3203V35.3203C8.78516 36.0793 9.40116 36.6953 10.1602 36.6953ZM41.7852 33.9453C43.3032 33.9453 44.5352 35.1773 44.5352 36.6953C44.5352 38.2133 43.3032 39.4453 41.7852 39.4453C40.2672 39.4453 39.0352 38.2133 39.0352 36.6953C39.0352 35.1773 40.2672 33.9453 41.7852 33.9453ZM17.0352 39.4453C15.5172 39.4453 14.2852 38.2133 14.2852 36.6953C14.2852 35.1773 15.5172 33.9453 17.0352 33.9453C18.5532 33.9453 19.7852 35.1773 19.7852 36.6953C19.7852 38.2133 18.5532 39.4453 17.0352 39.4453ZM18.9065 18.324C19.4691 17.7614 20.2321 17.4453 21.0278 17.4453H22.2852C23.942 17.4453 25.2852 18.7885 25.2852 20.4453V22.6953C25.2852 24.3522 23.942 25.6953 22.2852 25.6953H18.7778C16.1051 25.6953 14.7666 22.4639 16.6565 20.574L18.9065 18.324Z" fill="#1766FF" fill-opacity="0.1"/>
</g>
<defs>
<filter id="filter0_b_5144_872" x="-0.614843" y="-0.204687" width="60.05" height="51.8" filterUnits="userSpaceOnUse" color-interpolation-filters="sRGB">
<feFlood flood-opacity="0" result="BackgroundImageFix"/>
<feGaussianBlur in="BackgroundImageFix" stdDeviation="4.7"/>
<feComposite in2="SourceAlpha" operator="in" result="effect1_backgroundBlur_5144_872"/>
<feBlend mode="normal" in="SourceGraphic" in2="effect1_backgroundBlur_5144_872" result="shape"/>
</filter>
</defs>
</svg>