<?xml version="1.0" encoding="UTF-8"?>
<svg id="_图层_2" data-name="图层 2" xmlns="http://www.w3.org/2000/svg" xmlns:xlink="http://www.w3.org/1999/xlink" viewBox="0 0 652.6 155.4">
  <defs>
    <style>
      .cls-1 {
        fill: url(#_未命名的渐变_5);
      }

      .cls-2 {
        fill: url(#_未命名的渐变_5-2);
      }

      .cls-3 {
        fill: url(#_未命名的渐变_5-3);
      }

      .cls-4 {
        fill: #015bfe;
      }

      .cls-5 {
        fill: url(#_未命名的渐变_5-4);
      }

      .cls-6 {
        fill: #050505;
      }
    </style>
    <linearGradient id="_未命名的渐变_5" data-name="未命名的渐变 5" x1="323.22" y1="63.14" x2="432.6" y2="63.14" gradientUnits="userSpaceOnUse">
      <stop offset="0" stop-color="#428cf7"/>
      <stop offset="1" stop-color="#025bfe"/>
    </linearGradient>
    <linearGradient id="_未命名的渐变_5-2" data-name="未命名的渐变 5" x1="543.22" x2="652.6" xlink:href="#_未命名的渐变_5"/>
    <linearGradient id="_未命名的渐变_5-3" data-name="未命名的渐变 5" x1="432.85" y1="62.93" x2="480.01" y2="62.93" xlink:href="#_未命名的渐变_5"/>
    <linearGradient id="_未命名的渐变_5-4" data-name="未命名的渐变 5" x1="495.85" y1="62.93" x2="543.01" y2="62.93" xlink:href="#_未命名的渐变_5"/>
  </defs>
  <g id="_图层_1-2" data-name="图层 1">
    <path class="cls-1" d="M393.34,.2h-45.42c-3.06,0-5.7,2.24-6.31,5.3l-18.33,116.29c-.41,2.24,1.43,4.28,3.67,4.28h23.22c2.24,0,4.07-1.63,4.28-3.67l5.3-32.99c.41-3.05,3.06-5.3,6.31-5.3h14.26c29.94,0,47.05-14.46,51.53-43.18,2.04-12.42,0-22.4-5.7-29.33-6.11-7.54-17.52-11.41-32.79-11.41h0Zm5.3,42.36c-2.44,16.29-14.87,16.29-26.88,16.29h-6.92l4.89-30.35c.2-1.83,1.83-3.26,3.67-3.26h3.06c8.15,0,15.89,0,19.96,4.68,2.44,2.85,3.06,6.92,2.24,12.63Z"/>
    <path class="cls-2" d="M613.34,.2h-45.42c-3.06,0-5.7,2.24-6.31,5.3l-18.33,116.29c-.41,2.24,1.43,4.28,3.67,4.28h23.22c2.24,0,4.07-1.63,4.28-3.67l5.3-32.99c.41-3.05,3.06-5.3,6.31-5.3h14.26c29.94,0,47.05-14.46,51.53-43.18,2.04-12.42,0-22.4-5.7-29.33-6.11-7.54-17.52-11.41-32.79-11.41h0Zm5.3,42.36c-2.44,16.29-14.87,16.29-26.88,16.29h-6.92l4.89-30.35c.2-1.83,1.83-3.26,3.67-3.26h3.06c8.15,0,15.89,0,19.96,4.68,2.44,2.85,3.06,6.92,2.24,12.63Z"/>
    <path class="cls-6" d="M70.12,.2H24.7c-3.06,0-5.7,2.24-6.31,5.3L.06,121.79c-.41,2.24,1.43,4.28,3.67,4.28H25.31c3.06,0,5.7-2.24,6.31-5.3l4.89-31.36c.41-3.05,3.06-5.3,6.31-5.3h14.26c29.94,0,47.05-14.46,51.53-43.18,2.04-12.42,0-22.4-5.7-29.33C96.8,4.07,85.39,.2,70.12,.2h0Zm5.3,42.36c-2.44,16.29-14.87,16.29-26.88,16.29h-6.92l4.89-30.35c.2-1.83,1.83-3.26,3.67-3.26h3.06c8.15,0,15.89,0,19.96,4.68,2.44,2.85,3.06,6.92,2.24,12.63Zm130.14-.61h-21.79c-1.83,0-3.46,1.43-3.67,3.26l-1.02,6.11-1.43-2.24c-4.68-6.72-15.07-9.16-25.66-9.16-24.03,0-44.4,18.13-48.47,43.58-2.04,12.63,.81,24.85,8.15,33.4,6.72,7.74,16.09,11,27.29,11,19.35,0,29.94-12.42,29.94-12.42l-1.02,6.11c-.41,2.24,1.43,4.28,3.67,4.28h19.55c3.06,0,5.7-2.24,6.31-5.3l11.81-74.34c.41-2.04-1.22-4.28-3.67-4.28h0Zm-30.14,42.36c-2.04,12.42-12.02,20.77-24.44,20.77-6.31,0-11.41-2.04-14.66-5.91s-4.48-9.16-3.46-15.27c2.04-12.22,12.02-20.98,24.24-20.98,6.11,0,11.2,2.04,14.46,5.91,3.46,4.07,4.89,9.37,3.87,15.48h0Z"/>
    <path class="cls-6" d="M321.24,41.96h-21.79c-2.04,0-4.07,1.02-5.3,2.85l-30.14,44.4-12.83-42.57c-.81-2.65-3.26-4.48-6.11-4.48h-21.38c-2.65,0-4.48,2.65-3.67,5.09l24.03,70.47-22.61,31.77c-1.83,2.44,0,5.91,3.06,5.91h21.79c2.04,0,4.07-1.02,5.09-2.65l72.51-104.68c2.24-2.65,.41-6.11-2.65-6.11h0Z"/>
    <path class="cls-3" d="M451.44,3.26l-18.53,118.33c-.41,2.24,1.43,4.28,3.67,4.28h18.74c3.05,0,5.7-2.24,6.31-5.3L479.95,4.28c.41-2.24-1.43-4.28-3.67-4.28h-20.98c-2.04,.2-3.67,1.43-3.87,3.26h0Z"/>
    <path class="cls-5" d="M514.44,3.26l-18.53,118.33c-.41,2.24,1.43,4.28,3.67,4.28h18.74c3.05,0,5.7-2.24,6.31-5.3l18.33-116.29c.41-2.24-1.43-4.28-3.67-4.28h-20.98c-2.04,.2-3.67,1.43-3.87,3.26h0Z"/>
    <path class="cls-4" d="M518.11,67.53l-62.29-39.37c-1.16-.79-2.86,.24-3.51,2.02l-5.42,14.86c-.88,2.42-.37,4.99,1.2,6.11l61.19,38.79c1.16,.79,2.86-.24,3.51-2.02l6.07-16.64c.47-1.66,.25-3.2-.74-3.75h0Z"/>
  </g>
</svg>