<svg width="32" height="32" viewBox="0 0 32 32" fill="none" xmlns="http://www.w3.org/2000/svg">
<path d="M1.71436 2.82507C1.71436 2.21164 2.21394 1.71436 2.8302 1.71436H29.1699C29.7862 1.71436 30.2858 2.21164 30.2858 2.82507V22.8179C30.2858 23.4314 29.7862 23.9286 29.1699 23.9286H10.6411C5.71099 23.9286 1.71436 19.9504 1.71436 15.0429V2.82507Z" fill="#33D1C9"/>
<path fill-rule="evenodd" clip-rule="evenodd" d="M12.8372 10.6271C12.4033 11.061 12.4033 11.7646 12.8372 12.1985L13.7181 13.0794C14.586 13.9472 15.993 13.9472 16.8608 13.0794L19.4083 10.5319C19.8422 10.098 19.8422 9.39447 19.4083 8.96055C18.9744 8.52663 18.2709 8.52663 17.8369 8.96055L15.2895 11.508L14.4086 10.6271C13.9747 10.1932 13.2711 10.1932 12.8372 10.6271Z" fill="white"/>
<path d="M7.00799 30.2856H24.9924C25.8929 30.2856 26.4206 29.2741 25.9042 28.538L17.8238 17.0188C16.9376 15.7555 15.0628 15.7555 14.1766 17.0188L6.0962 28.538C5.57983 29.2741 6.10756 30.2856 7.00799 30.2856Z" fill="#86E8DD"/>
<path fill-rule="evenodd" clip-rule="evenodd" d="M22.6705 23.9284H10.641C10.2165 23.9284 9.79886 23.8989 9.39014 23.8419L14.1764 17.0188C15.0625 15.7555 16.9374 15.7555 17.8235 17.0188L22.6705 23.9284Z" fill="#0FC6C2"/>
</svg>
