<svg width="32" height="32" viewBox="0 0 32 32" fill="none" xmlns="http://www.w3.org/2000/svg">
<path d="M5.71423 6.57141C5.71423 5.46684 6.60966 4.57141 7.71423 4.57141H24.2857C25.3902 4.57141 26.2857 5.46684 26.2857 6.57141V11.7143C26.2857 12.8188 25.3902 13.7143 24.2857 13.7143H7.71424C6.60967 13.7143 5.71423 12.8188 5.71423 11.7143V6.57141Z" fill="#BEDAFF"/>
<path d="M1.14282 12.2858C1.14282 11.1812 2.03825 10.2858 3.14282 10.2858H28.8571C29.9617 10.2858 30.8571 11.1812 30.8571 12.2858V25.4286C30.8571 26.5332 29.9617 27.4286 28.8571 27.4286H21.6428C21.3281 27.4286 21.0317 27.2804 20.8428 27.0286L16.8 21.6381C16.4 21.1048 15.6 21.1048 15.2 21.6381L11.1571 27.0286C10.9683 27.2804 10.6719 27.4286 10.3571 27.4286H3.14282C2.03825 27.4286 1.14282 26.5332 1.14282 25.4286V12.2858Z" fill="#4080FF"/>
<path fill-rule="evenodd" clip-rule="evenodd" d="M26.2857 10.2858V14.0001C26.2857 15.1046 25.3902 16.0001 24.2857 16.0001H7.71424C6.60967 16.0001 5.71423 15.1046 5.71423 14.0001V10.2858H26.2857Z" fill="#0E59F0"/>
<path d="M22.8572 16H26.2857V18.2857" stroke="white" stroke-width="1.6" stroke-linecap="round" stroke-linejoin="round"/>
</svg>
