<svg width="32" height="32" viewBox="0 0 32 32" fill="none" xmlns="http://www.w3.org/2000/svg">
<path d="M29.7192 2H26.7808C26.3219 2 25.9219 2.3123 25.8106 2.75746L19.3106 28.7575C19.1528 29.3886 19.6302 30 20.2808 30H23.2192C23.6781 30 24.0781 29.6877 24.1894 29.2425L30.6894 3.24254C30.8472 2.61139 30.3698 2 29.7192 2Z" fill="#94BFFF"/>
<path d="M4.81063 7.75746C4.92193 7.3123 5.32191 7 5.78078 7L15.7192 7C16.3698 7 16.8472 7.61139 16.6894 8.24254L13.1894 22.2425C13.0781 22.6877 12.6781 23 12.2192 23L2.28078 23C1.63021 23 1.15285 22.3886 1.31063 21.7575L4.81063 7.75746Z" fill="#94BFFF"/>
<path d="M12.8106 2.75746C12.9219 2.3123 13.3219 2 13.7808 2L29.7192 2C30.3698 2 30.8472 2.61139 30.6894 3.24254L27.1894 17.2425C27.0781 17.6877 26.6781 18 26.2192 18L10.2808 18C9.63021 18 9.15285 17.3886 9.31063 16.7575L12.8106 2.75746Z" fill="#0E59F0"/>
<path d="M21.5 12H18.5H20L20.5 10L21.5 6L20.25 6.75L19.625 7.125" stroke="white" stroke-width="1.6" stroke-linecap="round" stroke-linejoin="round"/>
<path fill-rule="evenodd" clip-rule="evenodd" d="M14.251 18H10.2817C9.63117 18 9.15381 17.3886 9.3116 16.7575L11.751 7H15.7202C16.3708 7 16.8481 7.61139 16.6903 8.24254L14.251 18Z" fill="#0E42D2"/>
</svg>
