<svg width="32" height="32" viewBox="0 0 32 32" fill="none" xmlns="http://www.w3.org/2000/svg">
<path d="M14.6431 28.5534H29.7168C30.9779 28.5534 32.0002 27.5311 32.0002 26.2701V20.1339C32.0002 19.5283 31.7596 18.9475 31.3314 18.5193L24.6772 11.8651C24.249 11.4369 23.6682 11.1963 23.0626 11.1963H16.9264C15.6654 11.1963 14.6431 12.2186 14.6431 13.4797L14.6431 28.5534Z" fill="#4080FF"/>
<path d="M0.0180664 5.71605C0.0180664 4.45279 1.04236 3.42871 2.30588 3.42871H17.1588C18.4223 3.42871 19.4466 4.45279 19.4466 5.71605V28.5716H2.30588C1.04236 28.5716 0.0180664 27.5475 0.0180664 26.2842V5.71605Z" fill="#94BFFF"/>
<path fill-rule="evenodd" clip-rule="evenodd" d="M19.4466 11.1963V28.5534H14.6431L14.6431 13.4797C14.6431 12.2186 15.6654 11.1963 16.9264 11.1963H19.4466Z" fill="#0E59F0"/>
<path fill-rule="evenodd" clip-rule="evenodd" d="M19.1985 19.4286C18.655 19.4286 18.2144 18.988 18.2144 18.4444V15.9841C18.2144 15.4406 18.655 15 19.1985 15H21.6588C22.2023 15 22.6429 15.4406 22.6429 15.9841V18.4444C22.6429 18.988 22.2023 19.4286 21.6588 19.4286H19.1985Z" fill="white"/>
</svg>
