<svg width="32" height="32" viewBox="0 0 32 32" fill="none" xmlns="http://www.w3.org/2000/svg">
<path d="M15.4801 1.83694C15.8074 1.67349 16.1926 1.67349 16.5199 1.83694L31.3574 9.24724C32.2142 9.67514 32.2142 10.8964 31.3574 11.3243L16.5199 18.7346C16.1926 18.8981 15.8074 18.8981 15.4801 18.7346L0.642591 11.3243C-0.214198 10.8964 -0.214197 9.67514 0.642592 9.24724L15.4801 1.83694Z" fill="#FBACA3"/>
<path d="M6.10693 15.5883C6.10693 10.8648 10.5361 7.03564 15.9998 7.03564C21.4635 7.03564 25.8926 10.8648 25.8926 15.5883V25.6885C25.8926 28.2077 23.5304 30.2499 20.6165 30.2499H11.3831C8.46916 30.2499 6.10693 28.2077 6.10693 25.6885V15.5883Z" fill="#F76560"/>
<path fill-rule="evenodd" clip-rule="evenodd" d="M25.7489 14.1254L16.52 18.7346C16.1928 18.898 15.8076 18.898 15.4803 18.7346L6.25146 14.1254C7.0542 10.0989 11.1134 7.03564 16.0002 7.03564C20.887 7.03564 24.9462 10.0989 25.7489 14.1254Z" fill="#F53F3F"/>
<path fill-rule="evenodd" clip-rule="evenodd" d="M2.62864 10.502C3.13359 10.502 3.54293 10.9113 3.54293 11.4162V19.3754C3.54293 19.8804 3.13359 20.2897 2.62864 20.2897C2.1237 20.2897 1.71436 19.8804 1.71436 19.3754V11.4162C1.71436 10.9113 2.1237 10.502 2.62864 10.502Z" fill="#F53F3F"/>
</svg>
