<svg width="32" height="32" viewBox="0 0 32 32" fill="none" xmlns="http://www.w3.org/2000/svg">
<path d="M27.9284 13.6429C27.9284 20.2309 22.5878 25.5715 15.9999 25.5715C9.41189 25.5715 4.07129 20.2309 4.07129 13.6429C4.07129 7.05496 9.41189 1.71436 15.9999 1.71436C22.5878 1.71436 27.9284 7.05496 27.9284 13.6429Z" fill="#7BE188"/>
<path d="M14 6.5L16 9M18 6.5L16 9M16 9V13.5M13.5 9.5H18.5M13.5 11.5H18.5" stroke="white" stroke-width="1.6" stroke-linecap="round" stroke-linejoin="round"/>
<path d="M0 18.3607C0 16.9385 1.13887 15.7856 2.54374 15.7856H19.7317C21.9213 15.7856 23.6963 17.6027 23.6963 19.8192C23.6963 19.9749 23.8434 20.0888 23.9913 20.0461L29.2012 18.5415C30.0456 18.2976 30.9523 18.5864 31.5067 19.2757C32.3377 20.3088 32.0905 21.8448 30.9785 22.5575L25.9952 25.7517L21.8465 28.4109C19.936 29.6355 17.7211 30.2856 15.4597 30.2856C14.2382 30.2856 13.0238 30.0959 11.8591 29.7229L1.29875 26.3414C0.525544 26.0938 0 25.3676 0 24.5466V18.3607Z" fill="#23C343"/>
<path fill-rule="evenodd" clip-rule="evenodd" d="M4.26331 15.7856H19.7317C21.9213 15.7856 23.6962 17.6027 23.6962 19.8192C23.6962 19.9749 23.8434 20.0888 23.9912 20.0461L26.4913 19.3241C24.4721 23.0451 20.531 25.5714 15.9999 25.5714C10.1435 25.5714 5.27276 21.351 4.26331 15.7856Z" fill="#00B42A"/>
</svg>
