<svg width="32" height="32" viewBox="0 0 32 32" fill="none" xmlns="http://www.w3.org/2000/svg">
<path d="M1.71436 10.3711C1.71436 9.06157 2.77592 8.00001 4.08543 8.00001H27.7962C29.1057 8.00001 30.1672 9.06157 30.1672 10.3711L30.2858 27.8341C30.2858 29.1436 29.2242 30.2052 27.9147 30.2052H4.20398C2.89447 30.2052 1.83291 29.1436 1.83291 27.8341L1.71436 10.3711Z" fill="#4080FF"/>
<path d="M1.71436 6.0003C1.71436 4.77708 2.64125 3.75288 3.85839 3.63117L22.906 1.7264C24.3076 1.58624 25.5239 2.68692 25.5239 4.09554V14.5599C25.5239 15.8748 24.4579 16.9408 23.1429 16.9408H4.09531C2.78034 16.9408 1.71436 15.8748 1.71436 14.5599L1.71436 6.0003Z" fill="#94BFFF"/>
<path fill-rule="evenodd" clip-rule="evenodd" d="M1.74541 15.3974L1.71436 10.3711C1.71436 9.06157 2.77592 8 4.08543 8H25.5239L25.5239 15.0119C25.5239 16.3269 24.4579 17.3929 23.1429 17.3929H4.09531C2.91161 17.3929 1.92965 16.5291 1.74541 15.3974Z" fill="#0E59F0"/>
<path fill-rule="evenodd" clip-rule="evenodd" d="M23.7025 15.1548C23.2422 15.1548 22.8691 15.5279 22.8691 15.9881C22.8691 16.4483 23.2422 16.8214 23.7025 16.8214C24.1627 16.8214 24.5358 16.4483 24.5358 15.9881C24.5358 15.5279 24.1627 15.1548 23.7025 15.1548ZM20.9644 15.9881C20.9644 14.4759 22.1902 13.25 23.7025 13.25C25.2147 13.25 26.4405 14.4759 26.4405 15.9881C26.4405 17.5003 25.2147 18.7262 23.7025 18.7262C22.1902 18.7262 20.9644 17.5003 20.9644 15.9881Z" fill="white"/>
</svg>
