<svg width="24" height="24" viewBox="0 0 24 24" fill="none" xmlns="http://www.w3.org/2000/svg">
<g id="&#229;&#149;&#134;&#229;&#147;&#129;&#229;&#175;&#187;&#230;&#186;&#144;">
<mask id="mask0_11892_8788" style="mask-type:alpha" maskUnits="userSpaceOnUse" x="0" y="0" width="24" height="24">
<rect id="Rectangle 34624911" width="24" height="24" fill="#E8F3FF"/>
</mask>
<g mask="url(#mask0_11892_8788)">
<path id="Rectangle 34624913" d="M20.5064 4.99713C20.7086 4.5965 20.5477 4.10787 20.147 3.90573L12.8931 0.245774C12.4924 0.0436398 12.0038 0.20455 11.8017 0.605177L6.67771 10.7608C6.47558 11.1614 6.63649 11.65 7.03712 11.8522L14.2911 15.5121C14.6917 15.7142 15.1804 15.5533 15.3825 15.1527L20.5064 4.99713Z" fill="#FBACA3"/>
<path id="Rectangle 34624912" d="M1.16813 8.73209C0.560923 7.64889 1.34383 6.3125 2.58561 6.3125H21.5874C22.7881 6.3125 23.5741 7.56988 23.0482 8.6493L19.0892 16.7743C18.8169 17.333 18.2499 17.6875 17.6284 17.6875H7.1402C6.55227 17.6875 6.0102 17.3699 5.72272 16.8571L1.16813 8.73209Z" fill="#F76560"/>
<path id="Intersect" fill-rule="evenodd" clip-rule="evenodd" d="M19.8425 6.3125H8.92183L6.67749 10.7608C6.47535 11.1614 6.63626 11.65 7.03689 11.8522L14.2909 15.5121C14.6915 15.7142 15.1801 15.5533 15.3823 15.1527L19.8425 6.3125Z" fill="#2E2F30"/>
<path id="Vector 652 (Stroke)" fill-rule="evenodd" clip-rule="evenodd" d="M7.76337 15.8372C8.33662 16.19 8.51535 16.9407 8.16258 17.5139L6.05566 20.9377H20.1246C20.7977 20.9377 21.3434 21.4833 21.3434 22.1564C21.3434 22.8295 20.7977 23.3752 20.1246 23.3752H5.32864C3.73956 23.3752 2.76588 21.6327 3.59871 20.2793L6.08667 16.2364C6.43943 15.6632 7.19012 15.4844 7.76337 15.8372Z" fill="#F76560"/>
<circle id="Ellipse 1449" cx="2.25" cy="3.875" r="1.625" fill="#2E2F30"/>
</g>
</g>
</svg>
