<svg width="32" height="32" viewBox="0 0 32 32" fill="none" xmlns="http://www.w3.org/2000/svg">
<path d="M1.71436 17.0608C1.71436 16.0305 2.44532 15.1447 3.45767 14.9483L19.2893 11.877C19.954 11.7481 20.5715 12.2567 20.5715 12.9332V30.2855H10.3298C5.57164 30.2855 1.71436 26.4317 1.71436 21.6778V17.0608Z" fill="#94BFFF"/>
<path d="M11.3574 6.70596C11.3574 5.67224 12.0912 4.78356 13.1073 4.58652L27.7118 1.75464C29.0463 1.49588 30.286 2.51657 30.286 3.87407V28.1268C30.286 29.3191 29.318 30.2858 28.124 30.2858H11.3574V6.70596Z" fill="#4080FF"/>
<path fill-rule="evenodd" clip-rule="evenodd" d="M11.3574 30.2855L20.5717 30.2855V12.9332C20.5717 12.2567 19.9542 11.7481 19.2895 11.877L11.3574 13.4158V30.2855Z" fill="#0E59F0"/>
<path d="M24.5713 9.4343C24.5713 8.83929 25.0536 8.35693 25.6487 8.35693C26.2437 8.35693 26.726 8.83929 26.726 9.4343V11.8584C26.726 12.4534 26.2437 12.9357 25.6487 12.9357C25.0536 12.9357 24.5713 12.4534 24.5713 11.8584V9.4343Z" fill="white"/>
</svg>
