<svg width="32" height="32" viewBox="0 0 32 32" fill="none" xmlns="http://www.w3.org/2000/svg">
<path d="M25.6584 8.79247C26.8826 7.88417 28.4366 9.38805 27.5689 10.6414L19.1522 22.799L15.8846 27.9484C15.2264 28.9857 13.6368 28.673 13.4207 27.4637L12.0538 19.8169C11.9638 19.3135 12.1666 18.8025 12.5773 18.4978L25.6584 8.79247Z" fill="#94BFFF"/>
<path d="M27.8581 26.1006L0.807483 14.266C-0.370078 13.7508 -0.226208 12.0363 1.02074 11.7245L30.3256 3.51769C31.2401 3.28908 32.1006 4.04605 31.9905 4.9822L29.7362 25.0237C29.6305 25.9222 28.687 26.4632 27.8581 26.1006Z" fill="#4080FF"/>
<path fill-rule="evenodd" clip-rule="evenodd" d="M13.3565 19.7563L11.9067 18.9952L31.3586 3.67627C31.4562 3.73704 31.5457 3.80998 31.6249 3.89303L19.4215 22.4097L13.3565 19.7563Z" fill="#0E59F0"/>
<path fill-rule="evenodd" clip-rule="evenodd" d="M20.0858 12.3182C20.4695 12.7733 20.4117 13.4533 19.9566 13.837L12.7092 19.9478L9.60122 22.5912C9.14777 22.9769 8.46754 22.9219 8.08187 22.4685C7.6962 22.015 7.75115 21.3348 8.2046 20.9491L11.3161 18.3027L18.567 12.189C19.0221 11.8053 19.7021 11.8631 20.0858 12.3182Z" fill="white"/>
</svg>
