<svg width="32" height="32" viewBox="0 0 32 32" fill="none" xmlns="http://www.w3.org/2000/svg">
<path d="M6.38477 4.00007C6.38477 2.7377 7.40811 1.71436 8.67048 1.71436H23.8133C25.0757 1.71436 26.0991 2.7377 26.0991 4.00007V13.1429C26.0991 14.4053 25.0757 15.4286 23.8133 15.4286H8.67048C7.40811 15.4286 6.38477 14.4053 6.38477 13.1429V4.00007Z" fill="#FFCF8B"/>
<path d="M17.8874 29.3988C16.967 30.5807 15.1773 30.5814 14.2561 29.4001L0.489075 13.99C-0.686466 12.4826 0.390064 10.2856 2.30423 10.2856H29.6958C31.6092 10.2856 32.6859 12.4811 31.5119 13.9888L17.8874 29.3988Z" fill="#FF9A2E"/>
<path fill-rule="evenodd" clip-rule="evenodd" d="M26.0991 10.2856V13.1429C26.0991 14.4053 25.0757 15.4286 23.8133 15.4286H8.67048C7.40811 15.4286 6.38477 14.4053 6.38477 13.1429V10.2856H26.0991Z" fill="#FF7D00"/>
<path fill-rule="evenodd" clip-rule="evenodd" d="M16.232 19.9644C16.735 19.9644 17.1427 20.3659 17.1427 20.8612V23.1032C17.1427 23.5985 16.735 24.0001 16.232 24.0001C15.729 24.0001 15.3213 23.5985 15.3213 23.1032V20.8612C15.3213 20.3659 15.729 19.9644 16.232 19.9644Z" fill="white"/>
</svg>
