<?xml version="1.0" standalone="no"?><!DOCTYPE svg PUBLIC "-//W3C//DTD SVG 1.1//EN" "http://www.w3.org/Graphics/SVG/1.1/DTD/svg11.dtd"><svg t="1754599641281" class="icon" viewBox="0 0 2816 1024" version="1.1" xmlns="http://www.w3.org/2000/svg" p-id="23096" xmlns:xlink="http://www.w3.org/1999/xlink" width="550" height="200"><path d="M1085.76 225.016c12.692-0.056 25.388-0.16 38.08-0.16 0 19.52 0 39.092 0.052 58.612 24.056 0 48.108-0.104 72.16 0.268 0.108 9.44 0.268 18.828 0.48 28.268-11.84 0.16-23.624 0.264-35.464 0.424 10.504 18.88 21.92 37.228 33.492 55.412h-37.44c-10.988-18.24-22.24-36.32-33.172-54.612-0.16 18.776-0.16 37.6-0.16 56.428-12.696 0-25.336-0.056-37.976-0.056 0-18.24 0-36.48-0.104-54.72-11.36 17.12-21.868 34.72-32.268 52.376-12.532 0.428-25.068 0.48-37.6 0.532 11.092-18.664 22.612-37.012 33.868-55.52-11.68-0.052-23.36-0.052-35.04-0.052 0-9.6-0.056-19.148-0.056-28.696 23.68-0.052 47.416-0.052 71.096-0.052 0.104-19.468 0.16-38.988 0.052-58.452zM1221.6 223.896c12.8 0.052 25.652 0.264 38.508 0.48-2.08 7.52-4.108 15.092-6.136 22.664 28 0.056 56 0.056 84 0 0 9.496 0 18.988 0.056 28.428l-14.296 0.212c2.988 52.376-12.372 103.36-31.892 151.256 16.32 34.504 39.788 65.492 58.24 99.092-13.172 0-26.292 0-39.468-0.052-12.744-20.588-25.492-41.176-37.76-62.028-11.732 20.8-23.412 41.652-35.732 62.08-13.172 0-26.4-0.052-39.572-0.16 17.224-32.692 38.08-64 50.24-99.04-12.908-29.708-33.068-55.948-49.44-83.948 13.544-0.16 27.092-0.212 40.64-0.16 8.8 14.988 17.704 29.868 26.664 44.748 15.736-34.988 18.4-74.028 17.28-111.892h-36.32c-3.04 12.48-6.132 24.904-9.384 37.332-12.748 0-25.496-0.108-38.188-0.268 8.588-29.332 14.988-59.144 22.56-88.744zM1537.492 224.8c14.348 0 28.696 0.056 43.04 0.212 0 5.976 0 12 0.056 18.028 33.064 0.212 66.132-0.32 99.2 0.056 11.412-0.64 24.32 3.892 29.384 14.88 3.68 15.624 1.76 31.892 2.028 47.784-12.372-0.052-24.692-0.052-37.068-0.104-1.384-11.84 3.52-34.456-15.144-32.908-72.16-0.8-144.32-0.052-216.428-0.268-0.052 11.092-0.108 22.188-0.108 33.28-12.692 0.056-25.44 0.056-38.132 0.056-0.052-20.908-0.052-41.816 0.052-62.72 44.376 0 88.696 0.104 133.068-0.056 0.052-4.532 0.052-13.652 0.052-18.24zM1891.84 224.8c13.388 0.056 26.72 0.108 40.108 0.32 1.172 40.376-4.696 82.508 10.292 121.068 21.012 62.56 67.892 113.972 123.092 148.8 0 10.772-0.052 21.548-0.052 32.32-66.452-29.972-121.972-84.052-152.212-150.508-11.36 14.292-18.348 31.468-29.228 46.136-31.36 45.652-75.788 81.864-126.24 104.424a2116.9 2116.9 0 0 1-0.052-32.264c55.892-34.508 102.132-86.72 123.784-149.228 12.908-38.988 10.508-80.588 10.508-121.068z" fill="#1A1311" p-id="23097"></path><path d="M1016.104 228.692c12.108-0.104 24.268-0.212 36.48-0.372a681.3 681.3 0 0 1 22.936 40.32c-12.376 0.108-24.64 0.16-36.96 0.268a720.716 720.716 0 0 1-22.456-40.216zM1134.344 268.748a2253.788 2253.788 0 0 0 22.08-40.268c12.532 0 25.068 0.056 37.652 0.108a2670.752 2670.752 0 0 0-21.6 40.108c-12.744 0.052-25.44 0.104-38.132 0.052zM2503.36 242.028c100.64-4.8 201.28-10.028 302.028-12.056v13.28c-4.588 8-9.816 17.336-20.32 17.336-36.96 4-74.348 2.452-111.468 4.32-0.212 18.504-0.268 37.012-0.212 55.52 44 0.052 88 0 132 0.052v148.692c-4.16 14.936-11.52 30.776-26.776 36.96-21.12 8.748-44.692 4.696-66.932 5.336 0-9.708 0-19.364 0.052-29.068 17.388-1.6 40.64 4.8 52.216-12.212 4.96-39.36 0.64-79.416 2.08-119.04-30.88-0.108-61.76-0.056-92.64 0-0.056 58.876 0.052 117.812 0 176.692h-37.76c0.052-58.72-0.108-117.44 0.052-176.16-28.372-0.696-56.692-0.588-85.068-0.428-0.052 53.496 0 106.936-0.052 160.428-13.28-0.108-26.56-0.212-39.84-0.372 0.052-63.52 0.052-126.988 0-190.508 41.652-0.852 83.308 0.588 124.96-1.016-0.052-17.44-0.052-34.88-0.052-52.32-44.16 0.268-88.216 3.628-132.268 5.28a3024.76 3024.76 0 0 1 0-30.72zM2134.344 232.8c97.12 0.056 194.184 0.056 291.304 0-0.212 23.896 1.228 47.896-0.424 71.732-1.44 15.68-14.508 29.388-30.08 31.468-21.336 2.24-42.828 0.532-64.216 1.016 3.148 17.332 7.52 34.4 12.536 51.304 29.12 0.056 58.184 0 87.304 0v29.44c-26.772 0-53.544-0.16-80.264 0.216 7.04 21.6 10.184 44.584 19.04 65.6 12.96 20.052 39.68 14.184 59.944 15.04 0 9.76 0 19.52 0.108 29.28-30.348-0.268-67.52 5.864-89.548-20.536-19.52-25.652-20.32-59.84-29.652-89.652-45.708 0.108-91.412-0.052-137.12 0.108 0.32 21.12-1.28 42.4 1.068 63.464 3.732 8.96 13.224 14.668 22.824 14.776 22.24 1.332 44.536 0.104 66.828 0.48-0.052 9.812-0.052 19.624-0.052 29.384-28.588-0.692-57.388 1.76-85.868-1.332-25.972-3.892-44.588-29.28-43.732-54.988-0.376-78.932-0.268-157.868 0-236.8z m38.88 30.612V307.52c69.012-0.692 138.184 1.652 207.092-1.12 10.508-11.412 3.948-28.96 5.92-42.984-71.04-0.108-142.028-0.056-213.012 0z m0 73.6v51.36c43.144-0.052 86.344 0.268 129.544-0.212a1204.88 1204.88 0 0 0-13.76-51.2c-38.612 0.056-77.224 0-115.784 0.056zM1433.492 346.668c-5.656-6.88-1.388-19.944-2.72-29.172h243.092c0.108 9.812 0.212 19.68 0.428 29.548-18.348 13.864-37.548 26.72-58.4 36.48-10.668 5.384-22.88 8.852-30.616 18.612 43.628 1.868 87.308 0.372 130.988 0.908-0.052 9.76-0.052 19.572 0 29.384-42.772 0.056-85.548-0.052-128.32 0-2.612 28.588 9.6 66.936-17.812 86.616-29.176 13.224-62.616 4.372-93.548 6.88a2788.52 2788.52 0 0 1 0-29.496c23.04-3.36 54.132 9.388 71.2-11.092 2.668-17.492 1.172-35.2 1.388-52.8-49.12-0.108-98.24 0-147.308-0.052 0-9.816-0.052-19.576 0-29.388 49.12-0.108 98.24 0.108 147.36-0.108-0.052-8.96-0.052-17.972-0.108-26.932 18.348-8.212 36.32-17.228 53.228-28.108-56.268-1.704-112.64 0.908-168.852-1.28zM1036.424 376.748c11.096 0.056 22.188 0.056 33.336-0.052 1.224 5.224 2.452 10.4 3.732 15.572 21.228-0.16 42.508-0.16 63.788-0.16l0.64-15.252h37.864c0.108 3.788 0.376 11.36 0.48 15.2 6.88 0.052 13.708 0.104 20.588 0.212 0 9.28 0 18.508 0.052 27.788l-20.48 1.6c1.76 23.412-2.824 47.84-21.704 63.68 13.92 2.824 27.68 6.452 41.28 10.508 0.16 9.972 0.424 19.944 0.692 29.972-39.732-5.656-78.612-34.136-119.148-18.24a998.064 998.064 0 0 1-62.932 18.132c-0.052-9.972-0.052-19.948-0.052-29.92 13.44-4.108 27.04-7.732 40.8-10.508-19.468-15.04-21.92-39.412-20.268-62.344-7.252-1.012-14.508-2.028-21.76-2.936 0.052-9.332 0.052-18.664 0.16-28l19.36 0.48c0.908-3.944 2.668-11.784 3.572-15.732z m39.2 44.428c-8.692 5.76-3.784 18.292-3.68 26.932 2.08 16 20.748 17.652 32.536 23.252 9.652-3.572 19.304-7.2 29.064-10.612 4.108-12.96 4.32-26.612 4.056-40.052-20.64 0.32-41.388-1.172-61.976 0.48zM1062.88 667.84c33.228-28 80.908-32.48 122.028-23.468 23.412 4.16 44.32 18.72 57.172 38.56 12.32 20.8 15.732 45.388 16.48 69.176-60.532 0.212-121.012-0.32-181.548 0.32 6.136 44.96 53.228 74.08 96.268 71.68 23.252 1.012 45.28-7.36 65.868-17.28 0.104 9.492 0.212 18.984 0.372 28.532-51.948 14.188-110.828 20.212-160.372-4.908-58.508-29.44-67.468-122.24-16.268-162.612z m14.08 56.268c44.96 0.96 89.972 0.64 134.932 0.212-3.944-34.028-35.68-63.252-70.56-59.892-31.732 3.2-57.28 29.172-64.372 59.68zM1484.16 656.96c45.172-20.052 97.544-20.64 145.064-8.96-0.64 7.896-1.28 15.788-1.864 23.736-40.588-11.736-89.976-14.508-123.896 15.04-35.732 28.212-35.2 90.24 2.508 116.584 34.668 27.468 81.972 22.936 122.508 14.348l1.28 23.572c-55.308 11.736-117.016 9.656-165.336-22.664-55.2-38.56-41.012-135.84 19.736-161.656zM1694.56 644.004c21.12 0.8 48.372-4.96 62.824 14.824 35.148 45.496 70.348 90.988 105.176 136.748 0.264-50.508 0-101.012 0.104-151.572 12.96 0 25.92-0.056 38.936-0.056 0.16 66.56 0 133.176 0.052 199.736-21.28-0.536-48.532 4.64-62.56-15.896-35.092-44.692-69.652-89.864-104.32-134.984-0.532 50.344-0.052 100.64-0.268 150.932-13.332 0-26.612 0-39.892-0.052-0.052-66.56-0.052-133.12-0.052-199.68zM1967.84 644c19.308 2.132 45.708-7.252 59.2 11.36 19.572 26.4 38.508 53.228 57.812 79.84 19.68-26.452 38.936-53.28 58.776-79.628 11.784-17.44 35.732-10.132 53.332-11.68-27.04 35.52-53.868 71.308-81.28 106.56-4.532 6.56-10.72 13.28-9.76 21.976-0.588 23.68 0.212 47.412-0.108 71.144-14.824 0.056-29.704 0.056-44.532 0-0.48-25.012 0.748-50.132-0.32-75.144-0.052-6.348-5.44-10.776-8.532-15.788-28.32-36.108-56.428-72.372-84.588-108.64zM1292.904 728.268c29.6 0 59.2 0 88.856 0.056a1706.312 1706.312 0 0 0 0 23.944h-88.908c0-8 0-16 0.052-24z" fill="#1A1311" p-id="23098"></path><path d="M445.332 80a440 440 0 1 0 0 880 439.988 439.988 0 0 0 430.844-350.764H784.64a350.928 350.928 0 0 1-286.924 257.664v-173.856h219.996v-83.808h-219.996v-70.452H884.924a440.012 440.012 0 0 0-271.212-425.292A440.008 440.008 0 0 0 445.332 80z m0 89.052a350.948 350.948 0 0 1 155.4 36.624l-155.4 198.896-155.4-198.892a350.948 350.948 0 0 1 155.4-36.628z m-233.28 90.08l153.004 195.844h-263.92a350.952 350.952 0 0 1 110.912-195.84z m466.564 0a350.98 350.98 0 0 1 110.92 195.844h-263.928l153.008-195.84zM95.86 538.788h297.092v70.452h-220v83.808h220v173.792a350.948 350.948 0 0 1-297.092-328.052z" fill="#DC0017" p-id="23099"></path></svg>