<?xml version="1.0" standalone="no"?><!DOCTYPE svg PUBLIC "-//W3C//DTD SVG 1.1//EN" "http://www.w3.org/Graphics/SVG/1.1/DTD/svg11.dtd"><svg t="1754599714757" class="icon" viewBox="0 0 3363 1024" version="1.1" xmlns="http://www.w3.org/2000/svg" p-id="24909" xmlns:xlink="http://www.w3.org/1999/xlink" width="656.8359375" height="200"><path d="M464.213333 624.64c-5.12 1.706667-8.533333 3.413333-13.653333 3.413333-11.946667 0-22.186667-6.826667-27.306667-17.066666l-1.706666-5.12-87.04-191.146667c-1.706667-1.706667-1.706667-5.12-1.706667-6.826667 0-8.533333 6.826667-15.36 15.36-15.36 3.413333 0 6.826667 1.706667 10.24 3.413334l102.4 73.386666c6.826667 5.12 17.066667 8.533333 25.6 8.533334 5.12 0 11.946667-1.706667 17.066667-3.413334l482.986666-215.04c-87.04-102.4-228.693333-168.96-390.826666-168.96-264.533333 0-477.866667 179.2-477.866667 397.653334 0 119.466667 64.853333 228.693333 165.546667 300.373333 8.533333 5.12 13.653333 15.36 13.653333 25.6 0 3.413333 0 6.826667-1.706667 10.24-10.24 30.72-22.186667 80.213333-22.186666 81.92-1.706667 3.413333-1.706667 8.533333-1.706667 11.946667 0 8.533333 6.826667 15.36 15.36 15.36 3.413333 0 6.826667-1.706667 8.533333-3.413334l104.106667-59.733333c8.533333-5.12 15.36-6.826667 25.6-6.826667 5.12 0 10.24 0 13.653333 1.706667 49.493333 13.653333 100.693333 22.186667 155.306667 22.186667 264.533333 0 477.866667-179.2 477.866667-397.653334 0-66.56-20.48-129.706667-54.613334-184.32L467.626667 621.226667l-3.413334 3.413333z" fill="#41B035" p-id="24910"></path><path d="M1969.493333 431.786667h267.946667v22.186666h-267.946667zM1969.493333 508.586667h267.946667v23.893333h-267.946667zM1976.32 742.4h254.293333V597.333333h-254.293333v145.066667z m228.693333-22.186667h-204.8v-98.986666h204.8v98.986666zM1909.76 291.84c-23.893333 83.626667-58.026667 158.72-102.4 223.573333l13.653333 23.893334c15.36-23.893333 30.72-49.493333 47.786667-78.506667v285.013333h23.893333V409.6c15.36-34.133333 29.013333-68.266667 39.253334-104.106667l-22.186667-13.653333zM2104.32 354.986667l18.773333-11.946667c-3.413333-8.533333-20.48-40.96-25.6-52.906667l-22.186666 13.653334c8.533333 15.36 15.36 30.72 22.186666 46.08 1.706667 1.706667 1.706667 5.12 1.706667 5.12h-158.72v23.893333h322.56v-23.893333h-158.72zM1500.16 298.666667h22.186667v121.173333h46.08v-85.333333h23.893333v107.52h-165.546667v-107.52H1450.666667v85.333333h49.493333zM1435.306667 491.52h145.066666v22.186667h-145.066666zM1600.853333 622.933333l-37.546666 32.426667V563.2h-122.88v35.84c3.413333 51.2-8.533333 87.04-37.546667 107.52l13.653333 22.186667c35.84-29.013333 51.2-69.973333 49.493334-121.173334v-22.186666h75.093333v54.613333c-1.706667 18.773333-1.706667 25.6-8.533333 34.133333l13.653333 23.893334c11.946667-10.24 34.133333-29.013333 66.56-56.32l-11.946667-18.773334zM1392.64 295.253333c-23.893333 47.786667-51.2 87.04-85.333333 117.76l13.653333 23.893334c37.546667-37.546667 68.266667-80.213333 92.16-129.706667l-20.48-11.946667zM1389.226667 418.133333c-22.186667 56.32-51.2 105.813333-88.746667 146.773334l13.653333 22.186666c15.36-17.066667 29.013333-35.84 42.666667-54.613333v211.626667h22.186667V494.933333c11.946667-20.48 22.186667-40.96 30.72-64.853333l-20.48-11.946667z" fill="#050101" p-id="24911"></path><path d="M1769.813333 404.48v-22.186667h-107.52c8.533333-27.306667 20.48-59.733333 23.893334-88.746666h-23.893334c-15.36 73.386667-39.253333 136.533333-69.973333 187.733333l13.653333 25.6c1.706667-5.12 6.826667-11.946667 10.24-20.48 5.12-8.533333 8.533333-15.36 11.946667-20.48 6.826667 66.56 20.48 119.466667 39.253333 158.72-18.773333 30.72-46.08 63.146667-81.92 95.573333l13.653334 23.893334c39.253333-35.84 64.853333-68.266667 78.506666-93.866667 17.066667 29.013333 44.373333 64.853333 75.093334 95.573333l13.653333-23.893333c-32.426667-30.72-59.733333-64.853333-75.093333-93.866667 27.306667-49.493333 44.373333-122.88 51.2-218.453333h27.306666z m-88.746666 191.146667c-17.066667-40.96-29.013333-97.28-35.84-167.253334 1.706667-6.826667 5.12-15.36 10.24-22.186666h66.56c-6.826667 78.506667-20.48 143.36-40.96 189.44" fill="#050101" p-id="24912"></path><path d="M3061.76 626.346667c-17.066667-32.426667-51.2-88.746667-78.506667-129.706667l20.48-10.24c27.306667 40.96 63.146667 95.573333 78.506667 126.293333l-20.48 13.653334zM2756.266667 740.693333l6.826666-22.186666c-76.8-11.946667-143.36-34.133333-199.68-66.56 59.733333-39.253333 109.226667-92.16 138.24-162.133334l-15.36-10.24-5.12 1.706667h-129.706666V392.533333H2747.733333v-23.893333h-196.266666v-83.626667h-23.893334v83.626667h-196.266666V392.533333h196.266666v90.453334h-133.12v23.893333c29.013333 59.733333 71.68 109.226667 124.586667 146.773333-59.733333 32.426667-128 54.613333-199.68 68.266667l6.826667 22.186667v1.706666c76.8-15.36 150.186667-39.253333 215.04-76.8 58.026667 35.84 129.706667 59.733333 215.04 71.68-1.706667 1.706667-1.706667 0 0 0m-334.506667-235.52h244.053333c-27.306667 56.32-71.68 98.986667-124.586666 133.12-51.2-34.133333-92.16-78.506667-119.466667-133.12M2932.053333 286.72c-29.013333 80.213333-76.8 157.013333-128 208.213333l10.24 25.6v1.706667c22.186667-22.186667 40.96-46.08 59.733334-75.093333v295.253333h23.893333V411.306667c22.186667-35.84 40.96-75.093333 56.32-116.053334l-22.186667-8.533333z" fill="#040000" p-id="24913"></path><path d="M3179.52 399.36V290.133333h-23.893333v109.226667h-209.92v23.893333h209.92v283.306667c0 11.946667-3.413333 15.36-15.36 15.36-8.533333 0-18.773333 3.413333-44.373334 3.413333v22.186667c35.84 0 47.786667 0 61.44-3.413333 15.36-3.413333 23.893333-11.946667 23.893334-35.84V423.253333h68.266666v-23.893333h-69.973333z" fill="#040000" p-id="24914"></path></svg>