<?xml version="1.0" standalone="no"?><!DOCTYPE svg PUBLIC "-//W3C//DTD SVG 1.1//EN" "http://www.w3.org/Graphics/SVG/1.1/DTD/svg11.dtd"><svg t="1754599443682" class="icon" viewBox="0 0 5259 1024" version="1.1" xmlns="http://www.w3.org/2000/svg" p-id="20570" xmlns:xlink="http://www.w3.org/1999/xlink" width="1027.1484375" height="200"><path d="M4501.643636 94.254545a64.465455 64.465455 0 0 1 64 84.48l-48.64 209.454546a72.610909 72.610909 0 0 0-46.545454 16.989091 82.152727 82.152727 0 0 0-23.272727 43.52c-3.490909 15.36-7.68 43.52 17.92 54.690909a76.101818 76.101818 0 0 0 27.22909 4.189091h-3.723636l-76.567273 332.567273a112.64 112.64 0 0 1-103.330909 83.54909h-332.101818a64.232727 64.232727 0 0 1-64-83.54909l154.530909-662.341819a112.64 112.64 0 0 1 103.330909-83.549091zM4305.454545 385.396364c-20.48 4.189091-25.6 5.12-44.450909 7.68h-1.629091a606.487273 606.487273 0 0 1-12.8 69.818181c-2.56 12.8-6.050909 26.530909-9.30909 40.029091v1.629091H4279.854545l1.629091-1.629091c2.56-11.869091 2.56-13.730909 7.68-36.770909 2.56-11.170909 6.749091-34.210909 9.309091-42.589091a35.84 35.84 0 0 1 12.8-3.490909c10.24 0 8.610909 8.610909 8.610909 11.869091s-4.189091 24.669091-7.68 40.029091l-2.56 10.24c-1.629091 7.68-3.490909 14.429091-5.12 23.272727v1.629091h41.890909v-1.629091c3.490909-17.92 4.189091-23.272727 9.309091-47.709091l2.56-11.86909c6.050909-23.272727 8.610909-34.210909 4.189091-43.52a23.272727 23.272727 0 0 0-23.272727-12.8 60.043636 60.043636 0 0 0-26.530909 6.050909c-3.490909 1.629091-6.749091 4.189091-10.24 6.050909l3.490909-11.869091z m132.189091 25.6c-10.24 1.629091-16.290909 3.490909-23.272727 4.189091l-23.272727 3.490909-1.629091 1.629091c-1.629091 7.68-1.629091 13.730909-3.490909 21.410909l-6.050909 29.789091c-2.56 9.309091-4.189091 12.8-5.12 16.290909s-2.56 6.749091-5.12 16.290909a201.076364 201.076364 0 0 1 21.410909 0h23.272727l1.629091-1.629091c1.629091-8.610909 1.629091-11.170909 2.56-15.36s2.56-10.24 6.050909-27.229091a244.363636 244.363636 0 0 0 6.050909-23.272727 244.363636 244.363636 0 0 0 6.050909-23.272728z m-182.690909-106.589091a177.570909 177.570909 0 0 1-44.450909 0c-1.629091 6.050909-23.272727 111.709091-24.669091 111.709091a82.850909 82.850909 0 0 1-20.48 46.545454 36.538182 36.538182 0 0 1-24.669091 8.610909 23.272727 23.272727 0 0 1-25.6-23.272727v-5.12l4.189091-29.090909c1.396364-6.050909 23.272727-96.581818 28.16-108.916364v-1.629091H4119.272727a130.327273 130.327273 0 0 1-28.858182 0l-1.62909 6.749091-24.669091 109.149091-2.56 9.309091-4.189091 29.789091v4.189091a42.123636 42.123636 0 0 0 4.887272 17.92c11.170909 19.549091 43.52 23.272727 61.44 23.272727a123.578182 123.578182 0 0 0 59.81091-13.730909 90.530909 90.530909 0 0 0 38.4-59.810909l2.56-11.170909c1.396364-6.050909 24.901818-100.770909 28.858181-113.105455z m256 110.778182l-15.127272 65.396363c-2.792727 0-5.818182-3.723636-5.818182-11.403636a76.101818 76.101818 0 0 1 2.56-18.850909c3.490909-17.454545 7.912727-31.418182 18.152727-35.374546z m-74.007272-36.538182a36.305455 36.305455 0 0 0-36.77091 4.189091c-11.170909 7.68-12.8 17.92-3.490909 23.272727a38.632727 38.632727 0 0 0 36.770909-4.189091c11.636364-6.283636 11.636364-17.454545 3.258182-23.505455z" fill="#E7373D" p-id="20571"></path><path d="M4613.352727 555.985455L4561.454545 726.807273a102.632727 102.632727 0 0 0-3.490909 14.429091c0 3.490909 4.189091 6.050909 6.749091 8.610909a17.92 17.92 0 0 0 11.869091 2.56 102.4 102.4 0 0 0 16.058182 0h9.309091l-20.247273 87.970909a64 64 0 0 0 59.810909 83.549091h-360.96a64.232727 64.232727 0 0 1-64-83.549091L4314.763636 418.909091c6.283636 1.861818 4.887273 8.610909 4.887273 11.403636s-3.723636 21.643636-6.749091 36.305455v3.956363l-2.56 10.24-3.490909 14.661819-1.629091 7.447272v1.629091H4347.112727v-1.629091c3.258182-16.523636 4.189091-21.410909 8.378182-42.356363v-5.585455l2.56-11.869091c6.050909-23.272727 8.610909-34.210909 4.189091-43.52a23.272727 23.272727 0 0 0-23.272727-12.8 62.836364 62.836364 0 0 0-17.687273 2.56l49.105455-210.850909a112.407273 112.407273 0 0 1 103.330909-84.48H4840.727273a112.872727 112.872727 0 0 0-104.029091 83.549091l-49.105455 212.48h1.396364a28.16 28.16 0 0 0-16.290909-4.189091 57.716364 57.716364 0 0 0-26.530909 6.050909l-6.749091 3.956364-3.490909 1.861818 3.490909-11.869091-1.629091-1.629091c-18.385455 3.956364-23.272727 4.887273-38.865455 6.981818H4591.941818a606.487273 606.487273 0 0 1-12.8 69.818182c-1.861818 9.541818-4.421818 19.781818-6.749091 29.789091l-2.56 10.24v1.629091H4612.421818l1.629091-1.629091c1.629091-11.869091 2.56-13.730909 6.749091-36.770909 2.56-11.170909 6.749091-34.210909 9.309091-42.589091a35.84 35.84 0 0 1 12.8-3.490909c9.309091 0 7.68 8.610909 7.68 11.869091s-3.723636 21.643636-6.749091 36.305455v3.956363l-2.56 10.24-3.490909 14.661818-1.629091 7.447273v1.629091h23.272727l-11.869091 51.2h-35.374545z m-27.229091 58.88h-105.890909l-7.68 24.66909h23.272728l-6.05091 21.41091h-23.272727l-7.68 26.530909h23.272727l-13.730909 46.545454a11.170909 11.170909 0 0 0 2.56 11.170909 9.541818 9.541818 0 0 0 7.68 6.050909c3.258182 0 5.352727 1.396364 8.145455 1.629091H4538.181818l8.610909-29.090909-21.410909 3.490909c-3.956364 0-13.265455 0-14.429091-3.025454l10.24-34.909091h43.52l7.68-26.530909h-43.52l6.749091-21.410909h41.890909z m151.505455 129.861818z m-113.338182-83.781818l-16.290909 65.861818 25.6-2.56-25.6 2.56a7.214545 7.214545 0 0 1-5.12-2.56c-1.396364-1.396364 0-3.490909 0-7.447273v-2.094545l16.290909-53.76z m8.610909-36.77091l-2.792727 11.869091h-2.094546l3.49091-11.869091z m2.792727-11.86909l2.792728-8.843637-1.861818 8.145455z m-75.86909-58.181819h-43.52l-11.17091 19.549091a26.065455 26.065455 0 0 1-6.74909 8.610909c0 1.396364-3.258182 1.629091-6.981819 1.629091h-8.378181l-7.68 25.6h18.850909a42.356364 42.356364 0 0 0 19.549091-5.12c3.490909-1.396364 4.654545 0 6.516363-2.327272l6.749091-5.12h58.88l7.68-26.53091h-43.52z m80.290909 54.923637z m1.861818 0z m2.094545-1.163637z m2.792728-1.396363h-1.396364 1.396364z m2.56-1.163637h-1.629091 1.629091z m2.792727-1.163636z m3.490909-1.396364z m3.490909 0z m3.956364 0h-1.396364 5.352727-4.189091z m-142.661819-211.549091a74.705455 74.705455 0 0 0-50.26909 16.989091 82.152727 82.152727 0 0 0-23.272728 43.52c-3.490909 15.36-7.68 43.52 17.92 54.690909a76.101818 76.101818 0 0 0 27.229091 4.189091 69.818182 69.818182 0 0 0 52.829091-20.48 88.901818 88.901818 0 0 0 18.850909-39.330909 49.803636 49.803636 0 0 0-4.189091-45.149091 48.872727 48.872727 0 0 0-39.098182-17.687272z m-83.54909 24.669091v-1.629091c-10.24 1.629091-16.290909 3.490909-23.272728 4.189091l-18.152727 2.56h-4.887273l-1.629091 1.629091c-1.396364 5.818182-1.629091 10.472727-2.327272 15.825455v5.585454l-6.050909 29.789091c-2.56 9.309091-4.189091 12.8-5.12 16.290909s-2.094545 6.050909-4.189091 13.032728v3.258181h44.450909c1.629091-8.610909 1.629091-11.170909 2.56-15.36s2.56-10.24 6.050909-27.22909a244.363636 244.363636 0 0 0 6.050909-23.272728 165.003636 165.003636 0 0 0 4.189091-16.058182l1.629091-7.912727z m78.42909 1.629091c9.309091 0 10.24 11.869091 6.05091 31.650909a86.574545 86.574545 0 0 1-9.309091 27.229091 15.127273 15.127273 0 0 1-12.8 7.68c-1.629091 0-9.309091 0-9.309091-11.869091a76.101818 76.101818 0 0 1 2.56-18.850909c3.956364-22.807273 9.076364-39.098182 22.341818-39.098182z m285.789091 17.454546z m9.076364 0h-8.610909z m-410.065455-48.407273c-11.170909 7.68-12.8 17.92-3.490909 23.272727a38.632727 38.632727 0 0 0 36.770909-4.189091c11.170909-7.68 12.8-17.92 3.49091-23.272727a36.305455 36.305455 0 0 0-37.003637 0.465455z m290.909091 10.472727z m-1.861818-1.629091h1.163637z m143.127273-51.898181z m-1.861818 0h-2.327273z m1.629091-33.28z m-9.076364 0z m-30.72 127.06909z" fill="#004989" p-id="20572"></path><path d="M4854.923636 94.254545c46.545455 0 25.6 37.469091 14.429091 84.48L4840.727273 305.338182h-87.272728a69.818182 69.818182 0 0 0-1.62909 7.68l-13.73091 59.345454c-1.861818 7.214545-30.72 127.069091-32.34909 132.887273h49.570909v-1.396364c2.094545-8.843636 8.145455-40.261818 8.145454-40.261818 0-3.490909 6.050909-26.065455 6.749091-26.763636a9.541818 9.541818 0 0 1 4.189091-3.490909H4810.472727l-67.025454 286.952727h-7.447273l-7.68 25.6h9.076364l-23.272728 97.28c-11.170909 46.545455-7.68 83.549091-53.76 83.549091h-379.810909a64.232727 64.232727 0 0 1-64-83.549091L4314.763636 418.909091c6.283636 1.861818 4.887273 8.610909 4.887273 11.403636s-4.189091 24.669091-7.68 40.029091l-2.56 10.24c-1.629091 7.68-3.490909 14.429091-5.12 23.272727v1.629091h41.890909v-1.629091c3.490909-17.92 4.189091-23.272727 9.309091-47.70909l2.56-11.869091c6.050909-23.272727 8.610909-34.210909 4.189091-43.52a23.272727 23.272727 0 0 0-23.272727-12.8 62.836364 62.836364 0 0 0-17.687273 2.56l49.105455-210.850909a112.407273 112.407273 0 0 1 103.330909-84.48z m-204.8 461.73091h-36.770909L4561.454545 726.807273a102.632727 102.632727 0 0 0-3.490909 14.429091c0 3.490909 4.189091 6.050909 6.749091 8.610909a17.92 17.92 0 0 0 11.869091 2.56 132.887273 132.887273 0 0 0 20.48 0h28.16l8.610909-29.090909-25.6 2.56a7.214545 7.214545 0 0 1-5.12-2.56c-1.629091-1.629091 0-4.189091 0-9.309091l16.290909-53.76h76.334546a54.458182 54.458182 0 0 0 13.730909-5.12 27.694545 27.694545 0 0 0 10.24-9.309091 67.258182 67.258182 0 0 0 10.24-23.272727l20.48-67.49091h-59.810909a158.72 158.72 0 0 0-26.530909 6.05091 127.534545 127.534545 0 0 0-19.549091 12.8z m-64 58.88h-105.890909l-7.68 24.66909h23.272728l-6.05091 21.41091h-23.272727l-7.68 26.530909h23.272727l-13.730909 46.545454a11.170909 11.170909 0 0 0 2.56 11.170909 9.541818 9.541818 0 0 0 7.68 6.050909 50.036364 50.036364 0 0 0 11.170909 1.629091H4538.181818l8.610909-29.090909-21.410909 3.490909c-4.189091 0-15.36 0-14.429091-4.189091l10.24-34.909091h43.52l7.68-26.530909h-43.52l6.749091-21.410909h41.890909z m134.749091 50.26909h-28.16l-3.490909 11.17091a11.869091 11.869091 0 0 1-2.56 3.490909h-14.661818v-14.429091h-35.84l-1.629091 71.68a10.705455 10.705455 0 0 0 4.189091 10.24 69.818182 69.818182 0 0 0 31.650909 3.490909h23.272727l7.68-26.530909h-26.298181s-1.629091 0-2.56-1.629091-1.629091 0-1.629091-5.12v-17.92h20.48a26.530909 26.530909 0 0 0 19.549091-6.749091 21.178182 21.178182 0 0 0 6.74909-11.869091z m-29.090909-40.96l-4.189091 11.869091a15.592727 15.592727 0 0 0-7.68 0h-52.130909l3.490909-11.869091z m12.8-40.96l-4.189091 14.429091h-33.28a67.258182 67.258182 0 0 0-32.349091 14.429091l9.309091-29.789091z m-144.989091-29.090909h-43.52l-11.170909 19.549091a26.065455 26.065455 0 0 1-6.749091 8.610909c0 1.629091-4.189091 1.629091-9.309091 1.629091h-6.050909l-7.68 25.6h18.850909a42.356364 42.356364 0 0 0 19.549091-5.12c4.189091-1.629091 5.12 0 7.68-3.490909l6.749091-5.12h58.88l7.68-26.530909h-43.52z m-39.330909-166.4a74.705455 74.705455 0 0 0-50.269091 16.989091 82.152727 82.152727 0 0 0-23.272727 43.52c-3.490909 15.36-7.68 43.52 17.92 54.690909a76.101818 76.101818 0 0 0 27.229091 4.189091 69.818182 69.818182 0 0 0 52.829091-20.48 88.901818 88.901818 0 0 0 18.850909-39.330909 49.803636 49.803636 0 0 0-4.189091-45.149091 48.872727 48.872727 0 0 0-38.865455-14.196363z m-83.549091 23.272728c-10.24 1.629091-16.290909 3.490909-23.272727 4.189091l-23.272727 3.490909-1.629091 1.629091c-1.629091 7.68-1.629091 13.730909-3.490909 21.410909l-6.050909 29.789091c-2.56 9.309091-4.189091 12.8-5.12 16.290909s-2.56 6.749091-5.12 16.290909a201.076364 201.076364 0 0 1 21.410909 0h23.272727c1.629091-8.610909 1.629091-11.170909 2.56-15.36s2.56-10.24 6.050909-27.229091a244.363636 244.363636 0 0 0 6.050909-23.272727 244.363636 244.363636 0 0 0 6.050909-23.272728z m200.610909-25.6a440.32 440.32 0 0 1-44.450909 7.68h-1.629091a606.487273 606.487273 0 0 1-12.8 69.818181c-2.56 12.8-6.050909 26.530909-9.309091 40.029091v1.629091H4611.723636l1.629091-1.629091c1.629091-11.869091 2.56-13.730909 6.749091-36.770909 2.56-11.170909 6.749091-34.210909 9.309091-42.589091a35.84 35.84 0 0 1 12.8-3.490909c9.309091 0 7.68 8.610909 7.68 11.869091s-4.189091 24.669091-7.68 40.029091l-2.56 10.24c-1.629091 7.68-3.490909 14.429091-5.12 23.272727v1.629091H4677.818182v-1.629091c3.490909-17.92 4.189091-23.272727 9.309091-47.709091l2.56-11.86909c6.050909-23.272727 8.610909-34.210909 4.189091-43.52a23.272727 23.272727 0 0 0-23.272728-12.8 57.716364 57.716364 0 0 0-26.530909 6.050909c-3.490909 1.629091-6.749091 4.189091-10.24 6.050909l3.490909-11.869091zM4514.909091 414.254545c9.309091 0 10.24 11.869091 6.050909 31.65091a86.574545 86.574545 0 0 1-9.309091 27.22909 15.127273 15.127273 0 0 1-12.8 7.68c-1.629091 0-9.309091 0-9.309091-11.86909a76.101818 76.101818 0 0 1 2.56-18.85091c4.421818-19.549091 9.541818-35.84 22.807273-35.84z m-78.429091-35.84a36.305455 36.305455 0 0 0-36.770909 4.189091c-11.170909 7.68-12.8 17.92-3.490909 23.272728a38.632727 38.632727 0 0 0 36.770909-4.189091c12.101818-6.050909 12.101818-17.221818 3.723636-23.272728z m357.701818-44.218181h5.12l28.625455 2.56 4.421818 2.094545-14.894546 58.181818a69.818182 69.818182 0 0 1-26.763636 5.12h-12.334545v-2.56l13.730909-59.810909z" fill="#004989" p-id="20573"></path><path d="M5171.665455 94.254545A64.465455 64.465455 0 0 1 5236.363636 178.734545l-154.530909 662.341819a112.64 112.64 0 0 1-103.330909 83.549091h-331.869091a64.232727 64.232727 0 0 1-64-83.549091l20.247273-87.970909h23.272727l8.610909-29.09091-25.6 2.56 15.127273-65.62909h71.447273a54.458182 54.458182 0 0 0 13.730909-5.12 27.694545 27.694545 0 0 0 10.24-9.309091 67.258182 67.258182 0 0 0 10.24-23.272728l20.48-67.490909h-59.810909a158.72 158.72 0 0 0-26.530909 6.050909 127.534545 127.534545 0 0 0-19.549091 12.8l5.12-18.850909h-1.396364l11.869091-51.2h17.687273v-1.629091c3.490909-17.92 4.189091-23.272727 9.309091-47.709091l2.56-11.86909c6.050909-23.272727 8.610909-34.210909 4.189091-43.52a19.083636 19.083636 0 0 0-8.145455-9.541819l49.105455-212.48A112.872727 112.872727 0 0 1 4840.727273 94.254545z m-338.85091 460.8H4794.181818l-9.309091 26.763637-40.96 135.68h-7.68l-7.68 25.6h78.429091l-2.56 8.610909h38.4l2.56-8.610909h10.007273l-3.258182 10.24h29.090909a34.909091 34.909091 0 0 0 30.72-16.290909l20.48-28.16 4.189091 29.090909a12.8 12.8 0 0 0 7.68 9.309091 18.850909 18.850909 0 0 0 10.24 4.189091H4980.363636l8.610909-28.16h-5.12a26.298182 26.298182 0 0 1-9.30909-1.629091s0-3.490909-1.629091-6.050909l-4.189091-29.090909h-18.850909l8.610909-9.309091H5003.636364l6.749091-23.272728h-41.89091l6.749091-20.48h41.890909l7.68-25.6h-125.44l-7.68 25.6h45.149091l-6.749091 20.48h-45.14909l-6.749091 23.272728h40.029091l-33.512728 44.218181a8.610909 8.610909 0 0 1-6.050909 5.12 16.290909 16.290909 0 0 1-7.68 2.56h-10.007273l3.956364-12.8h-11.170909L4894.254545 581.818182h12.8l4.189091-13.730909v16.290909c0 9.309091 6.749091 17.92 26.530909 16.290909h23.272728l7.68-25.6h-8.610909c-5.12 0-6.749091-1.629091-6.749091-4.189091v-15.36h-38.167273s-57.250909 0-66.56 3.490909a68.189091 68.189091 0 0 0-20.48 10.24z m-111.70909 110.08h-28.16l-3.49091 11.17091a11.869091 11.869091 0 0 1-2.56 3.490909h-14.661818v-14.429091h-35.84l-1.629091 71.68a10.705455 10.705455 0 0 0 4.189091 10.24 69.818182 69.818182 0 0 0 31.650909 3.490909h23.272728l7.68-26.530909h-26.298182s-1.629091 0-2.56-1.629091-1.629091 0-1.629091-5.12v-17.92h20.48a26.530909 26.530909 0 0 0 19.549091-6.749091 21.178182 21.178182 0 0 0 6.749091-11.869091z m104.96 21.41091l-9.309091 29.78909h-31.883637l9.309091-29.78909z m-16.29091-52.829091H4840.727273l-7.68 24.669091a109.847273 109.847273 0 0 0-16.290909 2.56 152.669091 152.669091 0 0 0-17.92 7.68z m-117.76-9.309091l-4.18909 11.869091a15.592727 15.592727 0 0 0-7.68 0H4631.272727l2.792728-11.869091z m164.77091-41.890909l-7.68 24.669091a129.861818 129.861818 0 0 0-16.29091 2.56c-6.050909 1.629091-17.92 6.749091-17.92 6.74909l10.24-34.210909z m-151.97091 0l-4.18909 14.429091h-33.28a69.818182 69.818182 0 0 0-31.65091 13.730909l1.861819-8.145455 6.749091-21.178182z m430.08-196.189091a424.96 424.96 0 0 1-43.52 7.68l-1.62909 1.629091-2.327273 5.12c-12.101818 26.763636-12.101818 21.876364-23.272727 46.545454v-3.490909l-2.56-55.389091-1.629091-1.629091h-4.887273a362.356364 362.356364 0 0 1-37.003636 6.749091l-1.629091 1.629091V400.523636c1.861818 9.774545 1.396364 9.076364 3.723636 27.229091 0 9.309091 2.56 19.549091 3.490909 29.789091 1.629091 16.290909 3.490909 23.272727 5.12 49.570909-12.8 20.945455-16.523636 29.556364-27.694545 46.545455h-1.396364l-9.309091 15.36s-1.629091 2.56-3.490909 2.56a12.567273 12.567273 0 0 1-6.050909 0h-5.12l-7.68 24.669091h25.6a31.418182 31.418182 0 0 0 29.789091-16.290909l13.498182-23.272728 3.490909-3.490909v-1.861818c13.963636-30.021818 93.090909-166.167273 93.090909-166.167273z m-200.610909 3.490909a56.32 56.32 0 0 0-47.709091 16.989091 79.592727 79.592727 0 0 0-23.272727 42.589091c-3.490909 15.36-7.68 43.52 17.92 53.76a57.716364 57.716364 0 0 0 23.272727 4.189091 40.96 40.96 0 0 0 23.272728-11.869091l-2.56 9.309091v1.62909h46.778182c3.490909-17.92 6.050909-34.210909 13.730909-67.490909 3.490909-15.36 6.749091-31.650909 11.170909-46.545454v-1.629091c-20.48 4.189091-26.530909 5.12-46.545455 7.68h-1.629091v5.585454a28.16 28.16 0 0 0-14.894545-13.498181z m-181.76-86.109091a69.818182 69.818182 0 0 0-1.629091 7.68l-12.8 60.974545c-1.861818 7.214545-30.72 127.069091-32.34909 132.887273h49.570909v-1.396364c2.094545-8.843636 8.145455-40.261818 8.145454-40.261818 0-3.490909 6.050909-26.065455 6.749091-26.763636a9.541818 9.541818 0 0 1 4.189091-3.490909h8.145455a123.810909 123.810909 0 0 0 76.334545-17.92 87.272727 87.272727 0 0 0 32.349091-52.130909 60.741818 60.741818 0 0 0 2.56-17.92 36.770909 36.770909 0 0 0-6.749091-23.272728c-11.869091-15.36-36.770909-16.290909-64.930909-16.290909h-34.443636c-20.712727-0.698182-30.487273-0.930909-35.141819-1.629091z m179.2 112.64c8.610909 0 13.032727 7.68 11.636364 21.643636l-2.327273 9.774546-3.025454 13.032727a53.527273 53.527273 0 0 1-6.283637 13.498182 20.945455 20.945455 0 0 1-16.290909 7.68c-1.629091 0-9.309091 0-9.309091-11.869091a76.101818 76.101818 0 0 1 2.56-18.850909c4.189091-18.152727 9.309091-34.443636 23.04-34.443637zM4794.181818 334.196364h5.12l28.625455 2.56a23.272727 23.272727 0 0 1 12.8 29.789091 40.96 40.96 0 0 1-23.272728 29.78909 76.8 76.8 0 0 1-31.650909 5.12h-7.68v-2.56l13.730909-59.810909z" fill="#007F90" p-id="20574"></path><path d="M4840.727273 94.254545h331.170909A64.465455 64.465455 0 0 1 5236.363636 178.734545l-154.530909 662.341819a112.64 112.64 0 0 1-103.330909 83.549091h-331.869091a64.232727 64.232727 0 0 1-64-83.549091l153.6-663.272728A112.872727 112.872727 0 0 1 4840.727273 94.254545z" fill="#007F90" p-id="20575"></path><path d="M4832.814545 555.054545l-4.18909 13.73091a68.189091 68.189091 0 0 1 20.48-10.24c9.309091-2.56 66.56-3.490909 66.56-3.49091h37.701818v15.36c0 2.56 1.629091 4.189091 6.749091 4.189091h8.610909l-7.68 25.6h-23.272728c-19.549091 1.629091-27.229091-6.749091-26.530909-16.290909v-16.290909l-4.189091 13.730909h-12.8l-40.02909 134.050909h11.170909l-3.956364 12.8h10.007273a16.290909 16.290909 0 0 0 7.68-2.56 8.610909 8.610909 0 0 0 6.050909-5.12l32.349091-43.52h-40.029091l6.749091-23.272727h45.149091l6.749091-20.48h-45.149091l7.68-25.6h125.44l-7.68 25.6h-41.890909l-6.749091 20.48h41.890909l-6.749091 23.272727H4957.090909l-8.610909 9.309091h18.850909l4.189091 29.090909c0 2.56 0 5.12 1.629091 6.050909a26.298182 26.298182 0 0 0 9.309091 1.629091h5.12l-7.214546 29.323637h-25.6a18.850909 18.850909 0 0 1-10.24-4.189091 12.8 12.8 0 0 1-7.68-9.309091l-4.189091-29.090909-20.48 28.16a34.909091 34.909091 0 0 1-30.72 16.290909h-29.090909l3.258182-10.24h-10.007273l-2.56 8.610909h-38.4l2.56-8.610909h-78.42909l7.68-25.6h7.68L4784.872727 581.818182l8.610909-27.229091z m-182.690909 0l-5.12 18.85091a127.534545 127.534545 0 0 1 19.549091-12.8 158.72 158.72 0 0 1 26.530909-6.05091h59.810909l-20.48 67.49091a67.258182 67.258182 0 0 1-10.24 23.272727 27.694545 27.694545 0 0 1-10.24 9.309091 54.458182 54.458182 0 0 1-13.730909 5.12h-75.170909l-16.290909 53.76c-1.629091 5.12-2.56 7.68 0 9.309091a7.214545 7.214545 0 0 0 5.12 2.56l25.6-2.56-8.610909 29.090909h-28.16a132.887273 132.887273 0 0 1-20.48 0 17.92 17.92 0 0 1-11.869091-2.56c-2.56-2.56-6.749091-5.12-6.749091-8.610909a102.632727 102.632727 0 0 1 3.490909-14.429091l51.2-170.589091z m-64 58.88l-7.68 24.669091h-41.890909l-6.749091 21.410909h43.52l-7.68 26.53091h-43.52l-10.24 34.90909c0 4.189091 10.24 4.189091 14.429091 4.189091l21.410909-3.490909-9.541818 30.254546h-46.545454a50.036364 50.036364 0 0 1-11.170909-1.629091 9.541818 9.541818 0 0 1-7.68-6.050909 11.170909 11.170909 0 0 1-2.56-11.170909l13.730909-46.545455h-23.272728l7.68-26.530909h23.272728l6.050909-21.410909h-23.272728l7.68-24.669091z m134.749091 50.269091l-3.490909 16.290909a21.178182 21.178182 0 0 1-6.749091 11.869091 26.530909 26.530909 0 0 1-19.549091 6.749091h-20.48v17.92c0 5.12 0 5.12 1.629091 5.12s1.629091 1.629091 2.56 1.629091H4701.090909l-7.68 26.530909h-23.272727a69.818182 69.818182 0 0 1-31.650909-3.490909 10.705455 10.705455 0 0 1-4.189091-10.24l1.629091-71.68h35.84v14.429091h14.661818a11.869091 11.869091 0 0 0 2.56-3.490909l3.490909-11.170909z m104.96 21.410909H4794.181818l-9.309091 29.789091h32.581818z m-16.290909-52.82909l-10.24 35.84a152.669091 152.669091 0 0 1 17.92-7.68 109.847273 109.847273 0 0 1 16.290909-2.56l7.68-24.669091h-31.650909z m-117.76-9.309091H4631.272727l-3.490909 11.869091h52.130909a15.592727 15.592727 0 0 1 7.68 0z m164.770909-41.890909h-31.650909l-10.24 34.210909s11.869091-5.12 17.92-6.749091a129.861818 129.861818 0 0 1 16.290909-2.56z m-151.970909 0h-60.509091l-9.309091 29.78909a67.258182 67.258182 0 0 1 32.349091-14.42909h33.28z m-144.989091-29.09091l-8.610909 15.36h43.52l-7.68 26.53091h-58.88l-6.749091 5.12c-2.56 2.56-3.490909 1.629091-7.68 3.490909a42.356364 42.356364 0 0 1-19.549091 5.12h-18.850909l7.68-25.6h6.050909c5.12 0 8.610909 0 9.309091-1.629091a26.065455 26.065455 0 0 0 6.749091-8.610909l11.170909-19.549091z m575.301818-167.330909l1.629091 1.629091s-82.850909 142.429091-93.090909 168.029091l-3.490909 3.490909-13.498182 23.272728a31.418182 31.418182 0 0 1-29.789091 16.290909h-25.6l7.68-24.669091h5.12a12.567273 12.567273 0 0 0 6.05091 0c1.629091 0 2.56-1.629091 3.490909-2.56l9.309091-15.36h1.396363c10.938182-17.221818 14.894545-26.065455 27.694546-46.545455-1.629091-25.6-3.490909-33.28-5.12-49.570909 0-10.24-2.56-20.48-3.490909-29.789091-2.56-19.549091-1.629091-16.989091-4.189091-29.789091v-2.56l1.629091-1.629091c19.549091-2.56 20.48-3.490909 41.890909-7.68l1.629091 1.629091 2.56 55.389091v3.490909c11.170909-25.6 10.24-18.850909 24.66909-51.2l1.629091-1.629091a424.96 424.96 0 0 0 43.52-7.68z m-200.610909 3.490909a28.16 28.16 0 0 1 15.36 13.265455v-5.585455h1.629091c19.549091-2.56 25.6-3.490909 46.545455-7.68v1.629091c-4.189091 15.36-7.68 31.650909-11.170909 46.545455-7.68 33.28-10.24 49.570909-13.730909 67.490909h-47.010909v-1.629091l2.56-9.309091a40.96 40.96 0 0 1-23.272728 11.869091 57.716364 57.716364 0 0 1-23.272727-4.189091c-25.6-10.24-21.410909-38.4-17.92-53.76a79.592727 79.592727 0 0 1 23.272727-42.589091 56.32 56.32 0 0 1 46.545455-14.196363z m-414.021818-2.56a48.872727 48.872727 0 0 1 40.029091 14.429091 49.803636 49.803636 0 0 1 4.189091 45.149091 88.901818 88.901818 0 0 1-18.850909 39.330909 69.818182 69.818182 0 0 1-52.829091 20.48 76.101818 76.101818 0 0 1-27.229091-4.189091c-25.6-11.170909-21.410909-39.330909-17.92-54.690909a82.152727 82.152727 0 0 1 23.272727-43.52 74.705455 74.705455 0 0 1 49.570909-15.127272z m-214.807273-0.698181l1.629091 1.629091-3.490909 11.86909c3.490909-1.629091 6.749091-4.189091 10.24-6.050909a60.043636 60.043636 0 0 1 26.530909-6.050909 23.272727 23.272727 0 0 1 23.272728 12.8c4.189091 9.309091 1.629091 21.410909-4.189091 43.52l-2.56 11.869091c-5.12 25.6-6.050909 29.789091-9.309091 47.709091v1.629091h-41.890909v-1.629091c1.629091-7.68 3.490909-14.429091 5.12-23.272727l2.56-10.24c3.490909-15.36 6.749091-34.210909 7.68-40.029091s1.629091-11.869091-8.610909-11.869091a35.84 35.84 0 0 0-12.8 3.490909c-2.56 8.610909-6.749091 31.650909-9.309091 42.589091-5.12 23.272727-5.12 24.669091-7.68 36.770909l-1.629091 1.629091h-42.589091v-1.629091c3.490909-13.730909 6.749091-27.229091 9.309091-40.029091a606.487273 606.487273 0 0 0 12.8-69.818182h1.629091c16.756364 0.232727 21.876364-0.698182 43.287272-4.887272z m132.189091 25.6v1.629091a244.363636 244.363636 0 0 1-6.050909 23.272727 244.363636 244.363636 0 0 1-6.050909 23.272727c-3.490909 16.989091-5.12 23.272727-6.050909 27.229091s0 6.749091-2.56 15.36h-23.272727a201.076364 201.076364 0 0 0-21.410909 0c2.56-9.309091 4.189091-12.8 5.12-16.290909s2.56-6.749091 5.12-16.290909l6.050909-29.789091c1.629091-7.68 1.629091-13.730909 3.490909-21.410909l1.629091-1.629091 23.272727-3.490909c3.490909 1.396364 9.541818-0.232727 19.781818-1.861818z m200.610909-25.6l1.629091 1.629091-3.490909 11.86909c3.490909-1.629091 6.749091-4.189091 10.24-6.050909a57.716364 57.716364 0 0 1 26.530909-6.050909 23.272727 23.272727 0 0 1 23.272728 12.8c4.189091 9.309091 1.629091 21.410909-4.189091 43.52l-2.56 11.869091c-5.12 25.6-6.050909 29.789091-9.309091 47.709091v1.629091h-41.890909v-1.629091c1.629091-7.68 3.490909-14.429091 5.12-23.272727l2.56-10.24c3.490909-15.36 6.749091-34.210909 7.68-40.029091s1.629091-11.869091-7.68-11.869091a35.84 35.84 0 0 0-12.8 3.490909c-2.56 8.610909-6.749091 31.650909-9.309091 42.589091-4.189091 23.272727-5.12 24.669091-6.749091 36.770909l-1.629091 1.629091h-42.589091v-1.629091c3.490909-13.730909 6.749091-27.229091 9.309091-40.029091a606.487273 606.487273 0 0 0 12.8-69.818182h1.629091a440.32 440.32 0 0 0 40.494545-4.887272z m116.363637-80.989091h69.818182c28.16 0 52.829091 0 64.930909 16.290909a36.770909 36.770909 0 0 1 6.749091 23.272727 60.741818 60.741818 0 0 1-2.56 17.92 87.272727 87.272727 0 0 1-32.349091 52.130909 123.810909 123.810909 0 0 1-76.334546 17.92h-8.145454a9.541818 9.541818 0 0 0-4.189091 3.490909l-6.749091 27.229091s-6.050909 31.418182-8.145455 40.261818v1.396364h-49.570909c1.629091-5.818182 30.487273-125.44 32.349091-132.887273l12.8-59.810909a69.818182 69.818182 0 0 1-0.698182-7.447273z m-498.501818 0v1.629091c-4.189091 12.8-29.090909 113.570909-29.090909 113.570909l-2.56 11.170909a90.530909 90.530909 0 0 1-38.4 59.810909 123.578182 123.578182 0 0 1-59.81091 13.730909c-17.92 0-50.269091-2.56-61.44-23.272727a44.916364 44.916364 0 0 1-5.12-23.272728l4.189091-29.78909 2.56-9.309091 24.669091-109.149091s1.629091-6.050909 1.629091-6.749091a130.327273 130.327273 0 0 0 28.858182 0h26.763636v1.629091c-4.189091 12.8-28.16 109.149091-28.16 109.149091l-4.189091 29.090909v5.12a23.272727 23.272727 0 0 0 25.6 23.272727 36.538182 36.538182 0 0 0 24.669091-8.610909 82.850909 82.850909 0 0 0 20.48-46.545455s23.272727-105.890909 24.669091-111.709091a177.570909 177.570909 0 0 0 44.450909 0zM4933.818182 417.047273c-13.730909 0-18.850909 16.290909-23.272727 34.909091a76.101818 76.101818 0 0 0-2.56 18.850909c0 11.869091 7.68 11.869091 9.30909 11.869091a20.945455 20.945455 0 0 0 16.29091-7.68 53.527273 53.527273 0 0 0 6.283636-13.498182l3.025454-13.032727 2.327273-9.774546c-0.465455-13.963636-4.887273-21.876364-13.498182-21.876364z m-418.909091-2.792728c-13.730909 0-18.850909 16.290909-23.272727 35.84a76.101818 76.101818 0 0 0-2.56 18.85091c0 11.869091 7.68 11.869091 9.309091 11.86909a15.127273 15.127273 0 0 0 12.8-7.68 86.574545 86.574545 0 0 0 9.30909-27.22909c5.12-19.549091 4.189091-31.650909-5.585454-31.65091z m-116.363636-31.650909a36.305455 36.305455 0 0 1 36.770909-4.189091c9.309091 6.050909 7.68 16.290909-3.490909 23.272728a38.632727 38.632727 0 0 1-36.77091 4.189091c-7.912727-5.12-6.050909-15.36 4.887273-23.04z m395.636363-48.407272v6.050909l-13.730909 59.810909v2.56h7.68a76.8 76.8 0 0 0 31.650909-5.12 40.96 40.96 0 0 0 23.272727-29.789091 23.272727 23.272727 0 0 0-12.8-29.789091l-28.625454-2.56z" fill="#FFFFFF" p-id="20576"></path><path d="M225.978182 3.490909A225.978182 225.978182 0 0 0 0 229.469091v566.690909a225.978182 225.978182 0 0 0 225.978182 225.978182h566.923636a225.978182 225.978182 0 0 0 225.978182-225.978182V229.469091A225.978182 225.978182 0 0 0 792.901818 3.490909H225.978182z" fill="#ED171F" p-id="20577"></path><path d="M990.021818 612.072727v184.087273a197.12 197.12 0 0 1-103.098182 173.381818 195.723636 195.723636 0 0 1-44.683636 17.687273 197.352727 197.352727 0 0 1-49.338182 6.283636H225.978182a196.189091 196.189091 0 0 1-102.167273-28.625454L116.363636 959.767273a198.283636 198.283636 0 0 1-53.294545-53.294546 196.189091 196.189091 0 0 1-33.745455-110.312727V612.072727a1079.156364 1079.156364 0 0 0 480.581819 112.174546 1079.156364 1079.156364 0 0 0 480.116363-112.174546z" fill="#FFFFFF" p-id="20578"></path><path d="M735.418182 512l2.792727 41.890909a75.170909 75.170909 0 0 1 0 10.472727 96.349091 96.349091 0 0 1 4.654546-10.472727l22.10909-41.890909h18.85091l-56.087273 93.090909h-17.687273l16.058182-26.530909-9.774546-66.56z m-266.472727-1.396364c19.316364 0 26.763636 14.894545 23.272727 34.676364a40.494545 40.494545 0 0 1-38.167273 34.909091c-19.316364 0-26.763636-14.894545-23.272727-34.909091a40.494545 40.494545 0 0 1 38.167273-34.443636z m212.48 0c16.989091 0 25.134545 6.749091 21.178181 23.272728l-9.309091 40.96a69.818182 69.818182 0 0 1-26.065454 4.887272c-20.014545 0-28.16-7.912727-25.134546-21.410909 4.189091-18.152727 23.272727-21.876364 44.218182-23.272727v-3.490909c1.629091-6.981818-2.56-9.541818-10.24-9.541818a61.44 61.44 0 0 0-19.549091 3.956363l-1.629091-11.403636a77.498182 77.498182 0 0 1 26.763637-3.723636zM280.669091 488.727273l-14.429091 63.301818a9.541818 9.541818 0 0 0 10.24 12.567273 16.290909 16.290909 0 0 0 16.058182-12.567273l14.429091-63.301818h17.454545l-14.429091 63.069091a36.072727 36.072727 0 0 1-36.770909 27.694545c-17.454545 0-28.16-10.007273-23.272727-27.694545l13.498182-63.069091z m82.152727 21.410909c19.781818 0 26.996364 8.145455 23.272727 23.272727l-10.472727 46.545455h-16.989091l10.705455-44.683637c1.629091-6.749091-1.629091-10.705455-9.309091-10.705454a33.745455 33.745455 0 0 0-10.472727 1.629091l-12.101819 53.061818h-16.756363l14.429091-63.301818a78.429091 78.429091 0 0 1 27.694545-5.12z m61.672727 1.396363l-15.127272 66.56h-16.756364l15.127273-66.094545z m114.967273-1.396363c19.781818 0 26.996364 8.145455 23.272727 23.272727l-10.472727 46.545455H535.272727l10.705455-44.683637c1.629091-6.749091-1.629091-10.705455-9.309091-10.705454a33.745455 33.745455 0 0 0-10.472727 1.629091l-12.101819 53.061818h-16.756363l14.661818-63.767273a78.429091 78.429091 0 0 1 27.461818-4.654545z m76.8-23.272727c23.272727 0 31.883636 11.170909 27.927273 28.625454a38.632727 38.632727 0 0 1-41.425455 28.16h-8.145454l-7.912727 34.676364h-16.989091l19.781818-86.109091a74.24 74.24 0 0 1 26.763636-3.490909z m67.723637 58.88c-12.567273 0-23.272727 1.629091-25.832728 11.636363-1.396364 6.283636 2.56 10.007273 11.403637 10.007273a33.512727 33.512727 0 0 0 9.774545-1.396364z m-218.065455-23.272728c-8.843636 0-15.127273 8.145455-18.152727 21.410909s0 21.178182 8.378182 21.178182 15.127273-7.912727 18.152727-21.178182 0.698182-20.014545-8.843637-20.014545z m147.549091-23.272727a32.814545 32.814545 0 0 0-9.309091 1.396364l-6.516364 28.392727a37.236364 37.236364 0 0 0 7.214546 0 20.247273 20.247273 0 0 0 23.272727-15.127273c0.232727-7.68-3.490909-12.567273-14.661818-12.567273z m-190.603636-17.687273a7.214545 7.214545 0 0 1 7.68 9.076364 12.567273 12.567273 0 0 1-11.636364 9.076364 7.214545 7.214545 0 0 1-7.447273-9.076364 12.334545 12.334545 0 0 1 11.403637-7.214546z m-17.221819-241.803636a16.290909 16.290909 0 0 1 16.290909 16.290909v151.04a16.290909 16.290909 0 0 1-32.581818 0V256a16.290909 16.290909 0 0 1 16.058182-14.196364zM881.105455 186.181818a16.290909 16.290909 0 0 1 16.290909 16.290909v23.272728h20.48a15.36 15.36 0 1 1 0 30.72h-20.48v139.636363a34.676364 34.676364 0 0 1-34.443637 31.185455H837.818182a15.36 15.36 0 0 1 2.327273-31.650909h15.825454a10.705455 10.705455 0 0 0 8.843636-10.705455V256h-106.58909a15.36 15.36 0 0 1 2.327272-30.72h104.261818V199.447273a16.290909 16.290909 0 0 1 16.29091-13.265455z m-256 145.454546v59.810909a34.676364 34.676364 0 0 1-34.676364 34.676363h-25.134546a15.36 15.36 0 0 1 2.327273-30.72h15.825455a10.705455 10.705455 0 0 0 8.843636-10.705454v-20.247273zM721.454545 234.356364v176.872727a16.290909 16.290909 0 0 1-32.34909-2.327273v-141.963636zM336.058182 279.272727a15.592727 15.592727 0 0 1 0 31.418182H181.294545l-26.298181 67.025455a11.170909 11.170909 0 0 0 0 4.189091 10.938182 10.938182 0 0 0 10.938181 10.938181h126.37091a9.541818 9.541818 0 0 0 9.541818-9.541818 9.541818 9.541818 0 0 0 0-4.189091l-8.610909-18.385454a16.523636 16.523636 0 1 1 30.021818-13.963637l10.24 25.6a36.538182 36.538182 0 0 1-33.512727 51.2H151.505455a33.978182 33.978182 0 0 1-31.883637-46.545454l26.530909-67.025455H107.054545A15.592727 15.592727 0 0 1 109.381818 279.272727h226.676364z m421.003636 2.094546a16.290909 16.290909 0 0 1 23.272727 0l46.545455 46.545454 1.629091 2.094546a16.290909 16.290909 0 0 1-24.669091 20.945454l-46.545455-46.545454a16.290909 16.290909 0 0 1-0.465454-22.574546zM488.727273 273.92l12.101818 33.512727L459.869091 349.090909l-2.094546 1.629091a16.058182 16.058182 0 0 1-20.945454-24.669091z m-79.36-84.48a15.825455 15.825455 0 0 1 23.272727 0l5.818182 5.818182a10.472727 10.472727 0 0 0 6.981818 2.792727h145.92A34.676364 34.676364 0 0 1 625.105455 232.727273v33.745454L698.181818 192.232727l2.094546-1.629091A16.058182 16.058182 0 0 1 721.454545 215.04l-131.258181 131.258182a20.48 20.48 0 0 1-29.090909 0L488.727273 273.92l11.403636-11.403636a16.058182 16.058182 0 0 1 23.272727 0l52.596364 52.596363 15.825455-15.825454v-59.810909a10.705455 10.705455 0 0 0-10.007273-10.705455h-144.756364a25.6 25.6 0 0 1-18.152727-6.516364l-10.705455-10.705454a15.825455 15.825455 0 0 1 1.163637-22.109091z m-88.901818 8.610909a15.592727 15.592727 0 1 1 0 31.418182H124.509091a15.592727 15.592727 0 1 1 0-31.418182h195.956364z" fill="#FFFFFF" p-id="20579"></path><path d="M500.596364 772.189091c-9.774545 0-15.36 7.912727-17.687273 17.454545l-32.116364 138.24a13.498182 13.498182 0 0 0 13.265455 17.454546h-79.127273a13.498182 13.498182 0 0 1-13.498182-17.454546l32.116364-138.24a23.272727 23.272727 0 0 1 21.643636-17.454545z" fill="#ED171F" p-id="20580"></path><path d="M585.774545 772.189091a23.272727 23.272727 0 0 0-21.643636 17.454545l-32.116364 138.24a13.498182 13.498182 0 0 0 13.498182 17.454546h-81.454545a13.498182 13.498182 0 0 1-13.265455-17.454546l32.116364-138.24c2.327273-9.774545 7.912727-17.454545 17.687273-17.454545z" fill="#082F67" p-id="20581"></path><path d="M597.410909 772.189091h36.538182a13.498182 13.498182 0 0 1 13.498182 17.454545l-32.116364 138.24a23.272727 23.272727 0 0 1-21.643636 17.454546h-48.174546a13.498182 13.498182 0 0 1-13.498182-17.454546l32.116364-138.24a23.272727 23.272727 0 0 1 21.643636-17.454545z" fill="#006A65" p-id="20582"></path><path d="M2081.28 351.418182a40.727273 40.727273 0 0 1 40.727273 40.727273V768a40.727273 40.727273 0 1 1-81.221818 0V392.145455a40.727273 40.727273 0 0 1 40.494545-40.727273z m1186.909091-139.636364a40.727273 40.727273 0 0 1 40.727273 40.727273v57.483636h50.967272a38.4 38.4 0 1 1 0 76.8h-51.2v336.523637a86.341818 86.341818 0 0 1-86.341818 86.341818H3165.090909a38.4 38.4 0 1 1 0-76.8h37.469091a26.996364 26.996364 0 0 0 23.272727-26.763637V386.327273h-259.258182a38.4 38.4 0 1 1 0-76.8h260.189091v-57.716364a40.727273 40.727273 0 0 1 40.727273-40.96zM2629.818182 573.905455v149.410909a86.341818 86.341818 0 0 1-86.341818 86.341818h-56.785455a38.4 38.4 0 1 1 0-76.8h37.469091a26.996364 26.996364 0 0 0 23.272727-26.763637v-50.501818z m240.64-240.64V768a40.727273 40.727273 0 1 1-81.221818 0V414.72zM1908.363636 446.603636a39.098182 39.098182 0 0 1 0 78.196364H1521.570909l-65.396364 166.167273a27.694545 27.694545 0 0 0-2.094545 10.24 26.996364 26.996364 0 0 0 26.996364 26.996363h315.112727a23.272727 23.272727 0 0 0 23.272727-23.272727 23.272727 23.272727 0 0 0-2.56-10.472727l-21.410909-46.545455a41.192727 41.192727 0 1 1 74.705455-34.909091l30.72 65.629091a90.996364 90.996364 0 0 1-83.316364 127.534546H1447.563636a84.945455 84.945455 0 0 1-79.592727-114.269091l65.861818-167.330909h-91.461818a39.098182 39.098182 0 0 1 0-78.196364H1908.363636z m1050.065455 5.12a40.494545 40.494545 0 0 1 57.483636 0l118.458182 118.458182a40.494545 40.494545 0 1 1-58.181818 58.181818l-118.458182-118.458181a40.494545 40.494545 0 0 1 0-57.949091z m-666.763636-20.014545l30.487272 83.549091-104.261818 104.261818a40.261818 40.261818 0 1 1-57.018182-57.018182z m-200.145455-210.850909a39.330909 39.330909 0 0 1 55.621818 0l14.661818 14.661818a26.298182 26.298182 0 0 0 17.687273 6.981818h363.985455a86.341818 86.341818 0 0 1 86.341818 86.341818v84.014546l186.181818-186.181818a40.261818 40.261818 0 0 1 57.018182 57.018181l-329.541818 328.61091a51.2 51.2 0 0 1-72.378182 0l-180.130909-180.13091 28.392727-28.392727a40.261818 40.261818 0 0 1 57.018182 0l131.025454 131.490909 39.796364-39.796363v-149.178182a26.996364 26.996364 0 0 0-26.996364-26.996364H2159.709091A64 64 0 0 1 2117.818182 302.545455l-26.530909-26.53091a39.330909 39.330909 0 0 1-0.698182-55.156363z m-221.789091 21.643636a39.098182 39.098182 0 1 1 0 78.196364h-488.727273a39.098182 39.098182 0 0 1 0-78.196364h488.727273z" fill="#333333" p-id="20583"></path></svg>